<svg fill="none" height="670" viewBox="0 0 1406 670" width="1406" xmlns="http://www.w3.org/2000/svg"><g fill="#fff"><path d="m292.331 493.552h-6.881v27.737h6.881z"/><path d="m332.346 521.225v-6.876h-35.794v6.876z"/><path d="m333.457 493.552h-6.88v57.869h6.88z"/><path d="m412.852 493.552h-6.88v57.869h6.88z"/><path d="m452.237 551.424v-6.876h-35.02v6.876z"/><path d="m401.659 551.443v-6.877h-25.743v6.877z"/><path d="m454.057 493.552h-6.88v57.869h6.88z"/><path d="m371.647 493.552h-6.88v57.869h6.88z"/><path d="m534.3 493.552h-6.88v57.869h6.88z"/><path d="m584.738 551.426v-6.876h-46.075v6.876z"/><path d="m523.125 551.426v-6.876h-25.743v6.876z"/><path d="m575.504 493.552h-6.88v57.869h6.88z"/><path d="m493.095 493.552h-6.88v57.869h6.88z"/><path d="m577.91 566.254h6.88v-10.585h-6.88z"/><path d="m918.75 500.428h-6.88v44.04h6.88z"/><path d="m870.718 544.598v6.876h36.875v-6.876z"/><path d="m870.694 517.734v6.876h36.876v-6.876z"/><path d="m870.713 493.61v6.876h36.875v-6.876z"/><path d="m629.776 493.552h-6.88v57.87h6.88z"/><path d="m670.904 521.212h-6.881v23.333h6.881z"/><path d="m634.114 544.555v6.877h25.666v-6.877z"/><path d="m628.004 514.321v6.877h31.696v-6.877z"/><path d="m607.984 493.587v6.876h10.591v-6.876z"/><path d="m704.84 493.552h-6.88v57.869h6.88z"/><path d="m768.155 493.552h-6.881v57.869h6.881z"/><path d="m746.045 521.212h-6.88v23.333h6.88z"/><path d="m702.007 544.572v6.877h32.778v-6.877z"/><path d="m709.231 514.378v6.876h25.666v-6.876z"/><path d="m801.321 493.552h-6.881v57.869h6.881z"/><path d="m842.448 521.212h-6.881v23.333h6.881z"/><path d="m805.656 544.553v6.876h25.666v-6.876z"/><path d="m799.813 514.355v6.877h31.464v-6.877z"/><path d="m955.393 493.552h-6.957v57.869h6.957z"/><path d="m988.094 526.035v-6.953h-28.449v6.953z"/><path d="m992.332 515.165 4.774 4.951 22.434-21.605-4.77-4.952z"/><path d="m997.202 524.846-4.774 4.951 22.432 21.606 4.78-4.952z"/><path d="m1028.71 493.552-4.78 4.952 22.44 21.606 4.77-4.952z"/><path d="m1023.87 546.374 4.77 4.952 22.44-21.606-4.78-4.952z"/><path d="m1126.09 493.552h-6.88v57.87h6.88z"/><path d="m1089.14 514.407v6.876h25.9v-6.876z"/><path d="m1089.15 493.69v6.876h31.39v-6.876z"/><path d="m1084.96 500.583h-6.88v13.83h6.88z"/><path d="m1077.99 546.51 4.77 4.951 21.82-21.016-4.77-4.951z"/><path d="m1003.94 378.586h-6.879v57.869h6.879z"/><path d="m1054.36 436.368v-6.877h-46.23v6.877z"/><path d="m1045.07 378.585h-6.88v57.87h6.88z"/><path d="m1047.44 451.271h6.88v-10.585h-6.88z"/><path d="m577.36 378.585h-6.881v57.87h6.881z"/><path d="m618.529 436.42v-6.876h-36.952v6.876z"/><path d="m618.522 385.421v-6.877h-41.204v6.877z"/><path d="m1085.42 378.665h-6.88v57.87h6.88z"/><path d="m1198.26 436.527v-6.877h-108.62v6.877z"/><path d="m1187.16 378.585h-6.88v57.87h6.88z"/><path d="m1191.42 451.387h6.88v-10.585h-6.88z"/><path d="m672.604 389.711h-7.808v46.744h7.808z"/><path d="m692.729 385.43v-6.877h-48.085v6.877z"/><path d="m777.725 382.971-5.273-4.418-44.852 53.463 5.273 4.418z"/><path d="m743.84 405.931 4.421-5.27-26.303-22.04-4.421 5.269z"/><path d="m939.983 400.213 4.774 4.952 22.434-21.606-4.774-4.951z"/><path d="m944.802 409.896-4.775 4.951 22.435 21.606 4.774-4.951z"/><path d="m913.258 378.67-4.775 4.952 22.435 21.606 4.774-4.952z"/><path d="m908.428 431.481 4.774 4.952 22.435-21.606-4.775-4.952z"/><path d="m513.174 400.169 4.774 4.952 22.435-21.606-4.774-4.952z"/><path d="m518.032 409.852-4.774 4.951 22.434 21.606 4.775-4.952z"/><path d="m844.583 378.916-6.88-.073-.618 57.863 6.879.074z"/><path d="m885.704 386.255-6.88-.073-.148 13.828 6.88.074z"/><path d="m848.692 399.792-.074 6.875 25.664.275.073-6.876z"/><path d="m838.447 378.906-.074 6.876 36.099.386.074-6.876z"/><path d="m796.39 399.248 6.88.074.148-13.829-6.88-.073z"/><path d="m807.532 399.426-.074 6.875 25.663.275.074-6.876z"/><path d="m807.739 378.648-.074 6.876 25.664.274.073-6.876z"/><path d="m294.727 378.585h-6.88v57.869h6.88z"/><path d="m403.193 385.45v-6.877h-104.287v6.877z"/><path d="m407.905 378.585h-6.881v57.87h6.881z"/><path d="m220.201 383.684h-6.881v52.771h6.881z"/><path d="m261.329 389.788h-6.881v46.666h6.881z"/><path d="m261.41 385.45v-6.876h-48.085v6.876z"/><path d="m443.155 378.585h-6.881v57.869h6.881z"/><path d="m484.36 385.77h-6.881v22.87h6.881z"/><path d="m447.436 408.837v6.876h25.665v-6.876z"/><path d="m442.14 378.57v6.876h31.077v-6.876z"/><path d="m551.637 144.57-6.88-.023-.192 57.87 6.88.023z"/><path d="m592.771 151.678-6.88-.022-.046 13.829 6.88.023z"/><path d="m592.708 172.385-6.88-.023-.077 23.333 6.88.023z"/><path d="m555.774 195.628-.023 6.876 25.666.085.023-6.876z"/><path d="m555.884 165.432-.023 6.876 25.666.085.023-6.876z"/><path d="m550.197 144.606-.023 6.876 31.387.104.022-6.876z"/><path d="m475.238 144.635h-6.881v57.87h6.881z"/><path d="m516.365 172.604h-6.881v22.87h6.881z"/><path d="m473.358 195.651v6.876h31.851v-6.876z"/><path d="m479.579 165.456v6.876h25.666v-6.876z"/><path d="m479.605 144.682v6.877h29.918v-6.877z"/><path d="m426.778 202.568h6.88v-50.993h-6.88z"/><path d="m385.587 195.49h6.881v-22.869h-6.881z"/><path d="m396.789 195.692v6.877h25.666v-6.877z"/><path d="m396.77 165.443v6.876h31v-6.876z"/><path d="m396.743 144.693v6.876h25.666v-6.876z"/><path d="m634.799 155.838h-6.88v46.666h6.88z"/><path d="m676.015 151.509v-6.876h-48.086v6.876z"/><path d="m969.154 155.993h-6.881v46.589h6.881z"/><path d="m1010.36 151.719v-7.031h-48.09v7.031z"/><path d="m1010.37 202.502v-6.877h-36.875v6.877z"/><path d="m1004.93 175.706v-6.876h-31.382v6.876z"/><path d="m1091.66 151.66v-7.031h-48.08v7.031z"/><path d="m1091.68 202.52v-6.876h-36.88v6.876z"/><path d="m1050.48 175.694h-6.88v19.857h6.88z"/><path d="m1048.5 155.944-4.87 4.862 19.41 19.395 4.87-4.863z"/><path d="m760.741 202.486v-6.877h-69.499v6.877z"/><path d="m754.89 217.421h5.876v-10.585h-5.876z"/><path d="m691.332 217.454h5.875v-15.993h-5.875z"/><path d="m708.861 144.635h-6.881v46.589h6.881z"/><path d="m743.553 151.539v-6.876h-30.459v6.876z"/><path d="m750.066 144.635h-6.88v46.589h6.88z"/><path d="m905.893 191.37 4.865-4.862-41.927-41.903-4.865 4.862z"/><path d="m859.6 149.511-4.865-4.863-41.927 41.903 4.865 4.863z"/><path d="m934.286 202.534v-6.876h-144.41v6.876z"/><path d="m927.404 217.431h6.88v-16.766h-6.88z"/><path d="m789.896 217.458h6.88v-10.585h-6.88z"/><path d="m358.154 202.519 4.866-4.862-53.024-52.994-4.866 4.863z"/><path d="m300.759 149.518-4.865-4.863-53.024 52.993 4.865 4.863z"/><path d="m323.377 182.3.008-6.876-56.512-.066-.008 6.876z"/><path d="m1127.48 155.529h-6.88v46.589h6.88z"/><path d="m1168.7 151.266v-7.031h-48.09v7.031z"/><path d="m1168.71 202.049v-6.876h-36.87v6.876z"/><path d="m1163.28 175.254v-6.876h-31.39v6.876z"/><path d="m1141.16 132.968h-6.88v6.877h6.88z"/><path d="m1155 132.968h-6.88v6.877h6.88z"/><path d="m865.484 264.546h-6.88v57.869h6.88z"/><path d="m937.301 264.546h-6.88v57.869h6.88z"/><path d="m874.743 264.591-4.865 4.863 27.988 27.971 4.865-4.862z"/><path d="m900.154 285.717 4.866 4.863 21.1-21.088-4.865-4.863z"/><path d="m1050.32 264.546h-6.88v57.869h6.88z"/><path d="m1152.2 295.921v-6.876h-97.72v6.876z"/><path d="m1163.5 264.546h-6.88v57.869h6.88z"/><path d="m1190.88 286.165 4.77 4.952 22.44-21.606-4.78-4.952z"/><path d="m1195.71 295.838-4.77 4.952 22.43 21.606 4.78-4.952z"/><path d="m1227.28 264.599-4.78 4.952 22.44 21.605 4.77-4.951z"/><path d="m1222.36 317.428 4.77 4.951 22.44-21.605-4.78-4.952z"/><path d="m973.018 264.546h-6.88v57.869h6.88z"/><path d="m1003 295.918v-6.876h-25.744v6.876z"/><path d="m1014.15 264.546h-6.88v57.869h6.88z"/><path d="m436.85 264.627-6.88-.008-.068 57.793 6.88.008z"/><path d="m510.215 264.55-6.88-.008-.068 57.869 6.88.008z"/><path d="m499.025 269.448-4.865-4.862-53.024 52.993 4.865 4.862z"/><path d="m484.139 264.478.008-6.876-28.449-.034-.008 6.877z"/><path d="m357.577 264.546h-6.881v57.869h6.881z"/><path d="m398.706 264.546h-6.881v57.869h6.881z"/><path d="m387.588 285.864-4.92-4.917-20.772 20.761 4.919 4.916z"/><path d="m213.313 286.748 4.774 4.951 22.434-21.605-4.774-4.952z"/><path d="m218.093 296.444-4.775 4.952 22.435 21.606 4.774-4.952z"/><path d="m166.66 265.182-4.774 4.952 22.434 21.606 4.775-4.952z"/><path d="m161.977 317.987 4.774 4.952 22.435-21.606-4.775-4.951z"/><path d="m204.662 265.087h-6.881v57.869h6.881z"/><path d="m552.39 264.469h-6.88v57.869h6.88z"/><path d="m561.006 286.332 4.87 4.858 22.008-22.039-4.87-4.857z"/><path d="m566.043 295.593-4.86 4.867 22.051 21.995 4.86-4.867z"/><path d="m320.546 272.041h-6.88v17.229h6.88z"/><path d="m320.546 296.224h-6.88v19.856h6.88z"/><path d="m272.475 316.146v6.876h36.875v-6.876z"/><path d="m272.527 289.282v6.876h36.876v-6.876z"/><path d="m272.47 265.158v6.876h36.875v-6.876z"/><path d="m827.634 322.383 4.865-4.862-53.024-52.993-4.865 4.862z"/><path d="m770.225 269.416-4.865-4.862-53.024 52.993 4.865 4.862z"/><path d="m613.273 317.428 4.828 5.007 54.834-52.808-4.828-5.007z"/><path d="m684.125 264.546h-6.881v57.87h6.881z"/><path d="m451.04 8.49878h-4.87v36.93142h4.87z"/><path d="m479.875 12.7485h-4.87v32.6047h4.87z"/><path d="m479.829 9.78624v-4.86754h-33.629v4.86754z"/><path d="m572.718 45.3818 3.444-3.4419-37.117-37.09523-3.444 3.44184z"/><path d="m532.696 8.3454-3.444-3.44184-37.117 37.09524 3.444 3.4419z"/><path d="m618.036 45.3789h4.87v-35.6952h-4.87z"/><path d="m589.283 40.426h4.87v-15.9933h-4.87z"/><path d="m597.16 40.4674v4.8676h17.935v-4.8676z"/><path d="m597.149 19.3429v4.8675h21.646v-4.8675z"/><path d="m597.107 4.86588v4.86752h17.936v-4.86752z"/><path d="m800.721 45.3789h4.87v-35.6952h-4.87z"/><path d="m771.89 40.4263h4.871v-15.9933h-4.871z"/><path d="m779.803 40.5104v4.8675h17.935v-4.8675z"/><path d="m779.791 19.3859v4.8675h21.646v-4.8675z"/><path d="m779.751 4.83146v4.86751h17.935v-4.86751z"/><path d="m642.53 4.86768h-4.87v40.48542h4.87z"/><path d="m663.451 26.8643v-4.8675h-18.012v4.8675z"/><path d="m671.366 4.86768h-4.87v40.48542h4.87z"/><path d="m719.216 9.81073v-4.94476h-33.629v4.94476z"/><path d="m719.181 45.3639v-4.8676h-25.821v4.8676z"/><path d="m690.383 26.5781h-4.87v13.9072h4.87z"/><path d="m688.986 12.7581-3.444 3.4419 13.611 13.6034 3.444-3.4419z"/><path d="m748.985 12.6709h-5.412v32.682h5.412z"/><path d="m763.081 9.72982v-4.86752h-33.629v4.86752z"/><path d="m823.352 4.86768h-4.871v40.48542h4.871z"/><path d="m852.187 9.88965h-4.871v15.99335h4.871z"/><path d="m826.333 26.0063v4.8675h18.013v-4.8675z"/><path d="m822.578 4.84806v4.86752h21.723v-4.86752z"/><path d="m914.058 4.87045-4.87-.0057-.048 40.48545 4.87.0057z"/><path d="m965.39 4.87046-4.87-.00571-.048 40.48545 4.87.0057z"/><path d="m957.516 8.30193-3.444-3.44182-37.117 37.09529 3.444 3.4418z"/><path d="m947.074 4.91439.006-4.867515-19.868-.0232878-.006 4.8675228z"/><path d="m868.421 4.86768h-4.87v40.48542h4.87z"/><path d="m897.256 4.86768h-4.87v40.48542h4.87z"/><path d="m889.377 19.7316-3.443-3.4418-14.541 14.5322 3.444 3.4418z"/><path d="m610.295 618.098h-7.035v14.062h7.035z"/><path d="m610.295 639.19h-7.035v23.643h7.035z"/><path d="m561.651 662.813v7.031h37.34v-7.031z"/><path d="m561.627 632.166v7.031h37.339v-7.031z"/><path d="m561.584 611.089v7.03h37.339v-7.03z"/><path d="m989.952 618.098h-7.035v14.062h7.035z"/><path d="m989.952 639.191h-7.035v23.642h7.035z"/><path d="m948.051 618.098h-7.035v14.062h7.035z"/><path d="m948.051 639.191h-7.035v23.642h7.035z"/><path d="m952.447 662.743v7.031h26.053v-7.031z"/><path d="m952.499 632.095v7.031h26.053v-7.031z"/><path d="m952.455 611.096v7.03h26.053v-7.03z"/><path d="m356.263 618.098h-7.034v44.658h7.034z"/><path d="m398.165 618.098h-7.035v44.658h7.035z"/><path d="m360.684 662.768v7.031h26.052v-7.031z"/><path d="m360.693 611.043v7.031h26.053v-7.031z"/><path d="m360.519 648.641 4.974 4.972 21.319-21.307-4.974-4.972z"/><path d="m1062.39 611.145h-7.04v21.015h7.04z"/><path d="m1062.39 639.191h-7.04v23.565h7.04z"/><path d="m1020.41 618.098h-7.03v14.062h7.03z"/><path d="m1024.89 662.806v7.03h26.13v-7.03z"/><path d="m1024.92 632.159v7.03h26.05v-7.03z"/><path d="m1024.84 611.047v7.031h37.5v-7.031z"/><path d="m719.686 611.068h-7.035v28.046h7.035z"/><path d="m761.43 639.422h-7.034v23.179h7.034z"/><path d="m712.616 662.771v7.031h37.34v-7.031z"/><path d="m723.998 632.089v7.031h25.975v-7.031z"/><path d="m714.373 611.047v7.031h39.968v-7.031z"/><path d="m796.605 618.098h-7.035v44.735h7.035z"/><path d="m838.35 639.577h-7.035v23.179h7.035z"/><path d="m800.896 662.766v7.031h26.053v-7.031z"/><path d="m791.46 632.542v7.031h35.484v-7.031z"/><path d="m800.914 611.081v7.031h30.382v-7.031z"/><path d="m455.523 611.145h-7.035v58.719h7.035z"/><path d="m417.771 632.498 4.974 4.972 21.374-21.361-4.975-4.972z"/><path d="m535.539 618.098h-7.035v14.062h7.035z"/><path d="m486.737 657.772 4.974 4.972 25.637-25.623-4.974-4.971z"/><path d="m492.278 611.09v7.031h31.851v-7.031z"/><path d="m498.104 662.786v7.031h37.339v-7.031z"/><path d="m681.956 611.067h-7.035v58.72h7.035z"/><path d="m633.152 632.325h7.036v-21.325h-7.036z"/><path d="m644.478 632.323v7.031h30.691v-7.031z"/><path d="m868.684 664.726 4.974 4.971 43.677-43.651-4.975-4.971z"/><path d="m868.579 611.078v7.031h39.04v-7.031z"/></g></svg>