<svg xmlns="http://www.w3.org/2000/svg" viewBox="0 0 500 500">
    <style>
        @media (prefers-color-scheme: dark) {
            .a { fill: #fff }
        }
        .a { fill: #000}
    </style>
    <path class="a" d="M6 16V26C3.79086 26 2 24.2091 2 22L2 20C2 17.7909 3.79086 16 6 16Z" />
    <path class="a" d="M22 26C22 28.2091 20.2091 30 18 30H10C7.79086 30 6 28.2091 6 26H22Z"/>
    <path class="a" d="M26 26C28.2091 26 30 27.7909 30 30H26V26Z"/>
    <path class="a" d="M6 16C6 13.7909 7.79086 12 10 12H22V6C24.2091 6 26 7.79086 26 10V26C23.7909 26 22 24.2091 22 22V16H6Z"/>
    <path class="a" d="M22 6H6C6 3.79086 7.79086 2 10 2L18 2C20.2091 2 22 3.79086 22 6Z"/>
</svg>
