<svg fill="none" height="667" viewBox="0 0 1406 667" width="1406" xmlns="http://www.w3.org/2000/svg" xmlns:xlink="http://www.w3.org/1999/xlink"><clipPath id="a"><path d="m0 0h1406v666.629h-1406z"/></clipPath><clipPath id="b"><path d="m548.008 632.423h368.106v34.5965h-368.106z"/></clipPath><g clip-path="url(#a)" fill="#fff"><path d="m653.197 135.916c-34.156-19.194-77.258-2.765-77.258-2.765l99.053-59.6985-10.085-20.3332s-23.909-3.2534-81.161 10.0853c-42.126 9.7599-66.198 19.8452-66.198 19.8452l1.952 11.712c3.741-1.3014 10.409-3.416 15.939-4.5547 0 0-10.084 4.0667-15.451 6.9947l.488 2.7653s47.818-16.104 63.595-20.0079c43.265-10.4107 71.565-11.3867 71.565-11.3867l-137.275 83.4475 5.368 21.797s49.607-30.093 86.529-28.303c36.921 1.952 46.192 15.453 42.613 37.413-3.578 21.472-18.379 49.613-45.866 72.711-60.18 50.427-170.781 57.747-171.106-7.157-.163-33.021 32.855-51.89 32.855-51.89l-1.301-2.44c-6.344 3.904-11.386 8.133-11.386 8.133 3.09-3.741 6.994-6.669 10.898-9.109l-2.928-5.531s-44.891 21.96-48.795 61c-5.692 58.397 70.102 90.117 162.811 49.125 2.115 3.579 7.482 15.128 0 28.304-4.879 8.459-17.24 9.597-21.144 1.301-1.952-4.229 1.139-10.41 1.139-10.41l-5.53-1.302s-6.832 10.574-1.302 20.171c9.434 16.592 40.174 10.41 49.445-10.899 6.506-14.802 1.139-32.533-.813-38.064 23.584-13.013 39.036-26.352 56.602-49.775 28.3-37.576 30.74-81.821-3.253-101.179zm-55.138 182.349c-.325 1.464-.813 2.928-1.464 4.229-.488 1.302-1.301 2.603-1.952 3.904-.325.651-.813 1.139-1.138 1.79-.488.488-.813.976-1.301 1.464-.976.976-1.789 1.789-2.603 2.44-.813.65-1.789 1.301-2.439 1.789-.814.488-1.464.813-2.115 1.139-1.138.488-1.789.813-1.789.813s.651-.325 1.789-.976c.488-.325 1.139-.813 1.952-1.301.651-.488 1.464-1.139 2.44-1.952.813-.651 1.626-1.627 2.439-2.603.326-.488.814-.976 1.139-1.464s.813-1.139 1.138-1.627c.651-1.138 1.302-2.44 1.952-3.741.651-1.301.976-2.765 1.301-4.229.651-2.928.976-5.856.976-8.622 0-2.765-.162-5.368-.488-7.482-.65-4.392-1.463-7.32-1.463-7.32s.325.65.65 1.952c.325 1.301.813 3.09 1.301 5.205.326 2.277.651 4.88.814 7.645-.326 3.091-.488 6.019-1.139 8.947zm72.053-120.536c-1.301 6.019-3.415 11.712-5.693 16.918-2.439 5.205-5.204 9.76-7.644 13.501-2.602 3.741-5.042 6.669-6.831 8.784-1.789 1.952-2.928 3.091-2.928 3.091s1.139-1.139 2.765-3.091c1.627-2.115 4.066-5.043 6.506-8.947 2.44-3.741 5.042-8.458 7.482-13.664 2.277-5.205 4.391-10.898 5.53-16.917.651-2.928 1.138-6.019 1.464-8.947.325-2.928.325-5.856.325-8.784 0-2.765-.163-5.53-.488-8.133-.163-1.301-.325-2.603-.488-3.741-.162-1.139-.325-2.44-.65-3.416-.976-4.392-2.44-7.971-3.741-10.248-1.302-2.277-2.277-3.416-2.277-3.416s1.138 1.139 2.439 3.416c.651 1.139 1.464 2.603 2.115 4.392.65 1.789 1.464 3.741 1.951 6.018.326 1.139.488 2.278.814 3.416.325 1.139.325 2.44.65 3.742.326 2.602.488 5.368.488 8.296s0 5.856-.325 8.784-.813 5.856-1.464 8.946z"/><path d="m1115.44 213.833c-.65 6.994-2.6 13.013-3.9 14.477 1.14-5.531 1.62-10.411 1.79-14.477l-10.57.162s-2.28 59.699-36.28 82.797l2.12 6.832c46.52-20.984 49.28-89.954 49.28-89.954z"/><path d="m732.73 368.365s-10.735 31.069-33.343 55.957c-20.168 22.285-43.264 30.907-49.77 33.021l30.415-93.207-3.741.65-5.205 14.152 3.416-13.826-21.307 3.578s-29.602 14.64-55.626 20.171c-2.765-4.88-6.18-8.784-10.246-11.387-12.036-7.808-23.91-2.928-25.536 4.88-1.627 8.134 2.602 15.128 25.536 12.688 1.301-.162 2.602-.325 4.066-.488 3.903 15.128 2.439 41.806-9.759 78.08-14.313 42.619-50.258 94.184-59.855 93.045-11.385-1.301-12.686-23.749.976-59.536 28.301-74.013 46.518-96.623 46.518-96.623h-4.717c-8.458 13.664-18.542 31.882-18.542 31.882 4.066-9.922 11.385-22.773 16.753-31.882l-18.217-.163s-7.482 10.411-17.403 29.28c0 0-58.716 107.685-105.071 131.109-22.608 11.386-54.324-4.88-58.065-27.003 2.765-3.904 5.367-7.808 7.644-11.386 50.258-75.152 85.065-106.547 130.607-107.848l9.596-15.291c-51.722-.976-82.625 18.056-148.661 116.632 1.952-44.245 30.416-100.04 30.416-100.04h-3.904c-6.018 11.712-10.247 21.472-10.247 21.472.976-5.205 4.392-13.826 7.807-21.472l-25.535.326s-38.873 81.17-19.518 128.831c-20.819 27.653-47.493 56.445-70.102 55.469-19.355-.976-25.535-21.146-16.915-48.474h-3.09c-1.789 5.205-2.44 9.922-2.44 9.922-.325-3.741.325-7.157.976-9.922h-8.132s-19.03 50.589 21.306 57.584c30.578 5.368 60.506-23.75 83.764-53.843 11.874 20.171 27.488 25.864 52.048 26.027 33.668.325 71.402-46.035 98.564-87.515-1.138 3.416-2.439 6.832-3.578 10.411-15.939 48.312.813 56.933 8.946 60.186 5.855 2.44 18.054 3.416 21.795 2.766 16.102-3.091 49.607-49.451 65.709-97.6 13.988-41.968 14.964-69.458 8.296-86.05 24.722-5.206 51.234-17.08 51.234-17.08l-62.457 189.506 4.717-.651 4.066-11.061-2.115 10.736 20.494-2.44 32.042-98.739 36.758 90.28 20.656-2.603-3.253-9.922 4.229 9.76 2.603-.326-41.964-91.418-.65.163c11.873-4.067 27.813-12.038 44.24-28.141 27.325-26.84 39.198-64.904 39.198-64.904zm-156.955 25.213c-.326 0-.651 0-1.139 0s-.813 0-1.301-.162c-.488 0-.976-.163-1.627-.326-.488-.162-1.138-.325-1.789-.488-.65-.162-1.138-.488-1.789-.976-.651-.325-1.138-.813-1.626-1.301s-.976-.976-1.302-1.627c-.162-.325-.325-.65-.488-.976-.162-.325-.325-.65-.325-.976-.162-.65-.325-1.301-.325-1.789 0-.651 0-1.139 0-1.627s.163-.976.325-1.301c.163-.325.325-.651.325-.976.326-.488.488-.813.488-.813s-.162.325-.325.813c0 .325-.163.651-.325.976 0 .325-.163.813-.163 1.301s0 .976.163 1.627c.162.488.325 1.139.488 1.627.162.488.488 1.138.813 1.626s.813.976 1.139 1.464c.487.488.975.814 1.463 1.139s.976.651 1.627.976c.488.325 1.138.488 1.626.651.488.162.976.325 1.464.488.488.162.976.162 1.301.325.651 0 1.139.163 1.302.325h.975s-.325 0-.975 0zm11.06-3.09c-13.175 1.301-18.054-1.627-17.566-6.832.325-5.368 9.108-6.67 15.451-1.79 2.115 1.627 3.904 4.392 5.368 8.134-1.139.162-2.278.325-3.253.488zm-175.335 194.386c-.976.162-1.952.325-3.253.65-1.301.163-2.765.488-4.229.488-1.626.163-3.253.326-5.205.326-1.789.162-3.741 0-5.692-.163-.976 0-1.952-.163-3.091-.325-.976-.163-2.114-.163-3.09-.326-.976-.162-2.114-.325-3.09-.488l-3.091-.813c-.975-.163-2.114-.651-3.09-.976s-1.952-.651-2.928-1.139c-1.951-.813-3.903-1.626-5.53-2.765-.813-.488-1.789-.976-2.439-1.464-.814-.651-1.464-1.139-2.277-1.627-.326-.325-.651-.488-1.139-.813-.325-.325-.651-.651-.976-.976-.65-.651-1.138-1.139-1.789-1.789-1.138-1.139-1.952-2.44-2.765-3.416s-1.301-1.952-1.789-2.766c-.976-1.626-1.464-2.44-1.464-2.44s.651.814 1.627 2.44c.488.814.975 1.79 1.951 2.766.488.488.814.976 1.302 1.626.487.488.975 1.139 1.463 1.627.651.488 1.139 1.139 1.789 1.627.326.325.651.65.976.813.326.325.651.488 1.139.813.813.488 1.464 1.139 2.277 1.627s1.626.976 2.44 1.464c1.626.976 3.578 1.789 5.53 2.603.976.488 1.952.65 2.927.976.976.325 1.952.65 3.091.813l3.09.813c.976.163 2.114.326 3.09.488.976.163 2.115.326 3.091.488.976.163 1.951.326 2.927.326 1.952.162 3.904.162 5.693.162s3.578 0 5.042-.162c1.627-.163 3.09-.326 4.229-.326 1.138 0 2.277-.162 3.253-.162 1.789-.488 2.765-.814 2.765-.814s-.976.326-2.765.814zm143.13-41.155c-4.066 5.693-9.596 13.339-15.777 20.333-1.626 1.79-3.253 3.416-5.042 5.043-1.789 1.464-3.578 2.928-5.855 3.579-2.114.813-4.229 1.138-6.343 1.138-2.115.163-3.904-.162-5.693-.488-3.416-.65-6.181-1.952-7.97-2.928s-2.765-1.626-2.765-1.626.976.65 2.765 1.626c1.789.814 4.554 1.952 7.97 2.603s7.644.488 11.711-.976c2.114-.651 3.903-1.952 5.53-3.579 1.626-1.464 3.253-3.253 4.879-4.88 3.09-3.416 6.181-7.157 8.783-10.573 2.765-3.416 5.205-6.669 7.319-9.597 4.229-5.693 6.832-9.435 6.832-9.435s-2.278 3.904-6.344 9.76zm119.059-28.304c2.114 5.368 3.415 8.947 3.415 8.947s-1.626-3.579-3.903-8.784c-1.139-2.603-2.44-5.693-3.904-9.109-1.464-3.254-2.927-6.832-4.391-10.411s-2.928-7.157-4.229-10.411c-1.301-3.416-2.603-6.506-3.578-9.109-2.115-5.368-3.416-8.947-3.416-8.947s1.626 3.579 3.904 8.784c1.138 2.603 2.439 5.694 3.903 9.11 1.464 3.253 2.928 6.832 4.392 10.41 1.463 3.579 2.927 7.158 4.228 10.411 1.302 3.416 2.44 6.507 3.579 9.109zm61.643-124.277c-1.789 3.254-3.578 6.67-5.692 10.086-1.139 1.626-2.115 3.416-3.253 5.042-1.139 1.627-2.115 3.254-3.253 4.718-1.139 1.464-2.115 2.928-3.253 4.229-1.139 1.301-1.952 2.603-3.091 3.741-.975 1.139-1.951 2.115-2.765 3.091-.813.813-1.626 1.627-2.114 2.277-1.301 1.302-1.952 1.952-1.952 1.952s.651-.813 1.789-1.952c.651-.65 1.302-1.464 2.115-2.277.813-.976 1.626-1.952 2.602-3.091.976-1.138 1.952-2.44 2.928-3.741s1.952-2.765 3.09-4.392c1.139-1.464 2.115-3.091 3.253-4.717 1.139-1.627 2.115-3.254 3.09-5.043 2.115-3.416 4.067-6.832 5.693-10.085 1.789-3.254 3.416-6.344 4.717-8.947s2.44-4.88 3.09-6.507c.651-1.626 1.139-2.44 1.139-2.44s-1.301 3.742-3.741 9.11c-1.139 2.44-2.603 5.693-4.392 8.946z"/><path d="m1156.43 425.787s-21.31 73.688-46.03 55.144c-18.87-14.152 24.56-169.336 24.56-169.336l-28.79 3.904-85.72 174.378s3.09-26.189 15.46-77.754c16.42-68.645 26.83-89.954 26.83-89.954l-6.83.65-9.27 23.424 6.99-23.261-20.49 1.789h-.33s-.65 1.79-2.27 7.32c-11.55 34.811-62.947 182.186-110.278 173.728-14.638-2.603-17.566-32.371-15.126-48.475.325-2.277.813-5.043 1.464-7.971 9.759-3.253 37.897-15.453 62.457-51.077 20.005-28.792 21.144-45.546 15.126-54.818-10.572-16.267-42.939-18.544-69.939 21.146-8.457 12.526-20.331 34.811-27.65 60.35-10.409 30.906-38.385 98.25-69.125 96.135-21.632-1.464-23.747-29.28-10.898-83.122l-3.903.488c-1.952 8.458-3.416 14.314-3.416 14.314l1.627-13.989-12.524 1.789c18.542-24.237 34.644-45.709 55.951-66.693 48.306-47.335 80.023-50.589 80.023-50.589l2.277-10.248c-1.79 0-5.042 0-9.109.976 0 0 3.741-1.952 9.434-2.277l.325-1.627s-30.578.326-85.065 53.029c-24.56 23.912-42.451 47.174-53.999 64.254l18.867-67.67-4.229.488-6.668 20.822 4.717-20.496-19.193 2.277-50.583 184.951 4.066-.488c.976-3.253 1.789-6.344 2.765-9.434.976-3.091 1.789-6.019 2.602-8.459 1.627-5.043 2.602-8.296 2.602-8.296s-.813 3.416-1.951 8.459c-.651 2.44-1.301 5.53-2.277 8.621-.814 2.928-1.627 5.856-2.44 8.947l19.518-2.44 23.746-85.4c-3.253 15.616-5.53 32.533-2.439 48.637 4.066 21.472 20.005 30.093 36.27 29.443 30.903-1.464 51.722-37.739 66.849-70.272 0 4.555-.163 11.875.325 16.429 3.253 29.931 19.192 38.552 33.505 40.504 36.759 4.88 67.662-48.962 92.386-102.317-6.833 28.467-11.224 54.656-13.013 68.808-1.627 12.688-1.789 18.707 10.083 21.472 11.06 2.602 15.94 1.301 21.8-9.76 16.91-31.72 67.49-132.248 67.49-132.248s-13.82 50.102-14.63 94.509c-.49 21.798 8.94 32.534 25.04 35.624 49.94 9.435 64.58-72.386 64.58-72.386zm-45.06-37.576c.33-1.952.65-4.717 1.14-8.133.33-1.627.65-3.416.98-5.368.32-1.952.81-3.904 1.14-6.019.81-4.067 1.79-8.459 2.92-12.85 1.14-4.392 2.28-8.784 3.26-12.851 1.14-4.067 2.27-7.808 3.25-11.061 1.95-6.507 3.42-10.736 3.42-10.736s-1.31 4.392-2.93 10.898c-.81 3.254-1.95 6.995-2.93 11.224-1.14 4.067-2.11 8.459-3.25 12.851s-2.12 8.784-2.93 12.85c-.49 2.115-.81 4.067-1.3 6.019-.33 1.952-.81 3.741-1.14 5.368-.49 3.091-1.14 5.856-1.63 7.808-.16 1.952-.48 3.091-.48 3.091s.32-1.139.48-3.091zm-138.084-34.648c6.018 5.043.488 21.147-14.476 41.643-21.144 29.28-41.313 39.69-49.77 43.106 4.066-15.941 10.734-35.461 21.307-52.541 21.957-35.461 36.921-37.25 42.939-32.208zm-62.132 29.605c1.789-3.253 4.066-7.157 6.506-11.061 2.602-3.904 5.53-7.971 8.62-11.875 1.627-1.952 3.253-3.904 5.042-5.693 1.79-1.789 3.416-3.578 5.205-5.042 1.789-1.627 3.578-2.928 5.368-4.23 1.789-1.301 3.578-2.277 5.204-3.253.814-.488 1.627-.813 2.44-1.139.813-.325 1.464-.65 2.277-.976 1.464-.488 2.765-.813 3.741-1.138 1.139-.326 1.952-.326 2.44-.488.65-.163.813-.163.813-.163s-.325 0-.813.163c-.651.162-1.464.325-2.44.65-.976.326-2.277.651-3.741 1.302-.651.325-1.464.65-2.277.976-.813.325-1.626.813-2.44 1.301-1.626.976-3.415 1.952-5.042 3.253-1.789 1.302-3.415 2.766-5.205 4.23-1.789 1.464-3.415 3.253-5.204 5.042-1.627 1.789-3.253 3.741-4.88 5.531-3.253 3.904-6.18 7.97-8.783 11.874-2.602 3.904-4.879 7.646-6.831 10.899-3.741 6.507-5.855 11.061-5.855 11.061s2.277-4.717 5.855-11.224zm-108.812 147.376c-.813-.163-1.626-.488-2.602-.814-.976-.488-2.114-.813-3.253-1.626-2.277-1.302-4.879-3.091-6.994-5.531-1.138-1.301-2.114-2.603-3.09-4.067s-1.789-3.09-2.44-4.554c-.65-1.627-1.301-3.253-1.789-4.88s-.976-3.253-1.301-4.88c-.651-3.253-.976-6.344-.976-8.947-.163-2.602 0-4.88.163-6.344.162-1.464.162-2.44.162-2.44s-.325 3.416.163 8.622c.325 5.205 1.464 12.2 4.391 18.381.651 1.627 1.464 3.091 2.44 4.554.813 1.464 1.952 2.766 2.928 3.904 2.114 2.44 4.554 4.392 6.668 5.694.488.325 1.139.65 1.627.976.488.325.976.488 1.464.813.976.325 1.789.651 2.439 1.139 1.464.325 2.277.65 2.277.65s-.813-.325-2.277-.65zm124.752-17.893c-.488.162-.976.162-1.627.325s-1.464.163-2.277.325c-.488 0-.813.163-1.301.163s-.976 0-1.301 0c-.488 0-.976 0-1.464 0s-.976-.163-1.464-.163c-.976 0-2.114-.325-3.09-.65-.488-.163-.976-.488-1.464-.651s-.976-.488-1.464-.813c-.976-.488-1.789-1.302-2.602-2.115-.651-.813-1.464-1.627-1.952-2.44-.325-.488-.488-.813-.813-1.301-.163-.488-.488-.814-.651-1.302-.325-.813-.651-1.626-.976-2.44-.488-1.626-.813-2.928-.976-3.904-.162-.976-.162-1.464-.162-1.464s.162.488.325 1.464c.325.976.65 2.278 1.138 3.742.326.813.651 1.626.976 2.44.163.488.488.813.651 1.301.325.488.488.813.813 1.301.488.814 1.301 1.627 1.952 2.44.813.651 1.626 1.464 2.44 1.952.488.326.813.488 1.301.814.488.162.976.488 1.464.65.976.326 1.951.651 2.927.651.488 0 .976.163 1.464.163h1.464 1.301 1.301c.814 0 1.627 0 2.277-.163.814-.325 1.302-.325 1.79-.325.975-.326 1.463-.326 1.463-.326s-.488.163-1.463.326zm222.826-47.662c-.65 1.464-1.62 3.579-3.09 5.856-.65 1.139-1.46 2.44-2.44 3.742-.81 1.301-1.79 2.765-2.93 4.066-2.11 2.766-4.55 5.531-7.32 7.971-1.3 1.301-2.92 2.277-4.39 3.416-1.46.976-3.09 1.952-4.71 2.765-1.63.814-3.09 1.464-4.72 1.79-.81.162-1.46.488-2.28.488-.81.162-1.46.325-2.11.325-1.3.163-2.6.163-3.74.163s-2.12-.163-2.93-.163c-1.63-.325-2.44-.488-2.44-.488s.98.163 2.44.325h2.93c1.14 0 2.44-.162 3.74-.325.65 0 1.3-.325 2.11-.488.65-.163 1.47-.325 2.28-.651 1.46-.488 3.09-1.138 4.55-1.952 1.47-.813 3.09-1.626 4.56-2.765 1.46-.976 2.93-2.115 4.23-3.416 2.76-2.44 5.2-5.043 7.32-7.808 2.11-2.765 4.06-5.368 5.36-7.645 2.93-4.718 4.56-7.971 4.56-7.971s-.33 1.301-.98 2.765z"/><path d="m1065.02-3.32635c-.16 1.464-.16 2.92799-.33 4.229319-.32 2.439991-.49 4.879981-.97 7.157301-.82 4.55463-1.79 8.94663-2.61 12.52533-.97 3.5786-1.95 6.6693-2.6 8.6213-.65 2.1146-1.14 3.2533-1.14 3.2533s1.63-4.7173 3.26-12.0373c.48-1.7893.81-3.7413 1.3-5.856.32-2.1146.81-4.392 1.14-6.66929.16-1.13866.32-2.27733.48-3.57866.17-1.13866.33-2.43999.33-3.578647.16-1.301328.32-2.765323.32-4.229313h-10.08s-2.28 46.52251-28.14 84.09831c-23.91 34.9737-58.226 32.8587-78.719 30.7437 17.403-56.6076 22.608-93.2074 18.541-97.9247-4.554-5.20536-15.939-5.04269-21.144.488-6.994 7.6453-29.602 47.8238-63.107 106.3837-17.404 30.418-32.53 63.765-32.53 63.765s12.199-42.293 22.771-78.08c13.825-47.1729 21.957-80.5195 21.957-80.5195l-3.741.488-8.132 21.1466 6.018-20.8212-16.427 2.1146s0 .1627-.163.3254c-2.277 3.2533-30.903 44.2451-64.246 91.9061 14.313-45.221 24.072-76.4529 24.072-76.4529l-25.211 2.928s-15.777 48.1492-52.372 113.3779c-17.729 31.72-24.398 37.414-24.398 37.414s-18.379-3.742-7.969-42.294c14.963-55.469 28.626-94.5086 28.626-94.5086l-4.554.488c-3.091 9.1093-5.856 17.7306-5.856 17.7306.814-5.5307 2.603-11.8746 4.229-17.5679l-20.006 2.1146s-7.969 23.2613-24.397 87.6773c-9.271 36.6.651 45.709 7.157 49.938 4.229 2.765 22.77 8.784 29.602 1.789 17.24-17.893 48.469-83.284 48.469-83.284s-9.596 28.466-21.307 63.439c-26.674 38.064-49.282 70.272-54.487 77.917-6.994 10.086-22.771 28.792-19.193 42.944 2.603 10.248 12.85 15.453 26.837 14.477 18.542-1.301 30.741-12.688 53.349-82.146 11.06-33.834 21.632-67.018 30.903-96.136 29.927-42.7807 57.577-82.1459 64.734-92.3939-6.018 18.3813-15.777 48.9625-28.626 90.4419-20.494 66.205-45.216 167.546-45.216 167.546l6.18-.65c2.277-8.784 5.042-19.032 5.042-19.032l-3.741 18.869 12.036-1.301c5.205-.488 8.783-3.416 11.386-11.875 7.807-25.701 30.74-94.021 62.619-155.671 37.409-72.5493 62.132-108.3358 62.132-108.3358s-5.855 28.4665-20.819 79.2188c-.325 1.301-.813 2.602-1.139 3.904-7.644 1.138-16.915 5.042-25.047 17.567-11.223 17.243-15.94 41.155-14.964 54.331.976 14.477 15.939 16.592 22.12 15.616 13.337-2.115 27.488-48.149 37.572-80.194 31.554 3.415 64.249 5.53 92.379-34.1604 29.28-41.1545 30.58-87.67695 30.58-87.67695zm-365.96 316.71035c-.814-.488-1.79-1.301-2.928-2.44-.488-.65-1.139-1.301-1.627-1.952-.487-.813-.975-1.626-1.463-2.44-.488-.976-.814-1.952-.976-2.928-.163-.488-.163-.976-.326-1.464-.162-.488-.162-.976-.162-1.626-.163-.976-.163-2.115 0-3.091 0-.976.162-2.115.325-2.928.325-1.952.976-3.741 1.464-5.205 1.138-2.928 2.44-4.555 2.44-4.555s-.976 1.79-1.952 4.718c-.488 1.463-.976 3.253-1.301 5.042-.163.976-.326 1.952-.326 2.928s-.162 1.952 0 3.091c0 .488 0 .976.163 1.464 0 .488.163.976.325 1.464.163.976.488 1.952.814 2.765.325.813.813 1.789 1.301 2.44.488.813.976 1.464 1.464 1.952 1.138 1.301 2.114 2.115 2.765 2.765.813.488 1.301.651 1.301.651s-.488-.163-1.301-.651zm39.686-56.119c-10.084 31.069-21.795 58.885-37.409 49.125-10.572-6.507 1.464-25.539 12.036-41.155 5.855-8.458 22.445-32.37 42.776-61.487-5.855 18.218-11.873 36.762-17.403 53.517zm57.902-120.861c-2.277 7.157-4.554 14.152-6.668 20.821-2.115 6.669-4.066 12.851-5.855 18.056-3.416 10.573-5.856 17.568-5.856 17.568s2.115-7.157 5.368-17.731c1.626-5.368 3.578-11.549 5.53-18.218 2.114-6.67 4.228-13.664 6.506-20.822 2.277-7.157 4.554-14.152 6.668-20.821 2.115-6.669 4.066-12.85 5.855-18.0557 3.416-10.5733 5.856-17.568 5.856-17.568s-2.115 7.1573-5.368 17.7306c-1.626 5.3681-3.578 11.5491-5.53 18.2191-2.114 6.506-4.229 13.663-6.506 20.821zm98.89 48.962c-5.53-2.114-2.114-25.376 4.717-41.642 7.157-16.918 15.289-23.424 22.934-25.701-8.458 27.815-22.446 69.295-27.651 67.343zm42.614-59.21c-.65 2.114-1.464 5.042-2.44 8.458-1.138 3.579-2.277 7.646-3.903 11.875-1.464 4.392-3.09 8.947-4.879 13.501-1.79 4.555-3.741 9.11-5.693 13.176-.976 2.115-1.952 4.067-2.928 5.856-.976 1.79-1.952 3.579-2.928 5.206-.975 1.626-1.951 2.928-2.927 4.066-.488.651-.976 1.139-1.301 1.627-.488.488-.814.813-1.302 1.301-.813.651-1.463 1.302-1.951 1.464-.488.326-.814.488-.814.488s.326-.162.651-.488c.488-.325 1.139-.813 1.952-1.626.325-.326.813-.814 1.138-1.302.326-.488.814-1.138 1.302-1.626.813-1.139 1.789-2.603 2.765-4.23.975-1.626 1.789-3.253 2.765-5.205.975-1.952 1.951-3.904 2.765-6.019 1.951-4.229 3.74-8.621 5.53-13.176 1.789-4.554 3.415-9.109 5.042-13.501 1.464-4.392 2.927-8.296 4.066-11.875 2.277-6.994 3.741-11.549 3.741-11.549s-.163 1.464-.651 3.579z"/><g clip-path="url(#b)"><path d="m735.683 666.461v-26.181h-7.692v-2.805c4.69-.187 7.317-.748 9.193-4.488h2.814v33.474z"/><path d="m765.886 650.563c-1.501 2.618-4.503 4.676-8.817 4.676-6.191 0-10.693-4.676-10.693-11.408-.188-6.171 4.502-11.407 11.631-11.407 8.442 0 12.194 5.797 12.194 16.082 0 9.351-3.377 18.514-13.132 18.514-6.566 0-9.568-4.114-10.318-8.415h4.502c.563 2.992 2.814 4.862 6.191 4.862 5.44 0 8.254-5.049 8.442-12.904zm-7.879-14.586c-4.315 0-7.317 3.179-7.317 7.854 0 4.488 3.002 7.854 7.317 7.854 4.314 0 7.316-3.366 7.316-7.854 0-4.675-2.814-7.854-7.316-7.854z"/><path d="m776.955 651.498v-4.114h30.391v3.927h-30.391z"/><path d="m835.672 641.213c0 7.667-8.066 14.587-17.446 21.319h18.384v3.927h-24.2v-3.74c11.819-8.79 18.76-14.961 18.76-20.945 0-3.553-2.251-5.797-6.378-5.797-3.565 0-7.129 2.057-7.129 7.48h-4.315c-.187-6.732 4.503-11.033 11.631-11.033 6.191 0 10.693 3.179 10.693 8.789z"/><path d="m852.744 667.02c-9.005 0-12.944-6.732-12.944-17.392 0-10.659 4.127-17.204 12.944-17.204 9.005 0 12.944 6.732 12.944 17.204 0 10.473-3.939 17.392-12.944 17.392zm0-31.043c-5.253 0-8.629 4.488-8.629 13.838 0 9.351 3.189 13.839 8.629 13.839s8.63-4.488 8.63-13.839c0-9.35-3.377-13.838-8.63-13.838z"/><path d="m603.613 649.815h-4.314c-.563-2.805-3.19-4.862-6.379-4.862-3.752 0-7.128 2.992-7.128 9.163 0 6.359 3.376 9.351 7.128 9.351 3.565 0 6.003-2.431 6.566-5.049h4.315c-.938 4.675-5.253 8.602-11.068 8.602-7.129 0-11.631-5.423-11.631-12.904 0-7.293 4.69-12.903 12.006-12.903 6.191 0 9.755 4.488 10.505 8.602z"/><path d="m611.68 655.426c.188 5.423 3.94 7.854 7.692 7.854s5.815-1.683 6.753-4.114h4.315c-1.126 4.301-5.065 7.854-11.068 7.854-7.879 0-12.194-5.61-12.194-12.903 0-7.855 5.253-12.904 12.006-12.904 7.692 0 12.194 6.358 11.631 14.213zm0-3.553h14.633c-.188-3.554-2.627-6.92-7.129-6.92-3.752-.187-7.129 1.87-7.504 6.92z"/><path d="m654.453 659.353c0 5.423-4.877 7.667-10.505 7.667-5.253 0-9.755-2.431-10.506-8.228h4.315c.751 3.179 3.002 4.675 6.566 4.675s5.816-1.683 5.816-3.927c0-2.992-1.876-4.115-5.441-4.115h-3.939v-3.366h3.752c3.001 0 4.69-1.309 4.69-3.927 0-2.431-2.064-3.366-4.878-3.366-3.189 0-5.44 1.122-6.003 4.488h-4.315c.938-5.423 4.878-8.228 10.131-8.228 4.877 0 9.379 2.431 9.379 6.919 0 2.618-1.688 4.301-3.939 5.423 2.439.748 4.877 2.619 4.877 5.985z"/><path d="m681.467 654.117c0 8.976-6.191 12.903-12.007 12.903-5.815 0-12.006-3.927-12.006-12.903 0-8.977 6.191-12.904 12.006-12.904 5.816 0 12.007 3.927 12.007 12.904zm-11.819 9.163c3.752 0 7.504-2.805 7.504-9.163 0-6.546-3.564-9.164-7.504-9.164-3.752 0-7.504 2.431-7.504 9.164 0 6.545 3.564 9.163 7.504 9.163z"/><path d="m703.228 666.459v-10.846h-12.381v10.846h-4.127v-24.872h4.127v10.286h12.381v-10.286h4.128v24.872z"/></g></g></svg>