<svg fill="none" height="660" viewBox="0 0 1406 660" width="1406" xmlns="http://www.w3.org/2000/svg" xmlns:xlink="http://www.w3.org/1999/xlink"><clipPath id="a"><path d="m0 0h1406v660h-1406z"/></clipPath><g clip-path="url(#a)" fill="#fff"><path d="m349.113 480.946c-20.105 25.451-57.071 69.883-83.661 66.432-16.862-2.157-20.753-19.843-11.457-43.138l-2.811-.216c-1.945 4.53-2.81 8.412-2.81 8.412 0-3.235.649-6.039 1.513-8.627l-7.133-.432s-19.889 42.707 14.7 51.334c36.533 9.275 76.094-39.255 99.225-68.589 48.64-61.903 80.85-86.707 120.626-84.981l9.296-12.726c-44.965-3.882-73.068 10.784-137.488 92.531z"/><path d="m498.49 419.043s-56.638 90.374-98.361 108.276c-20.32 8.627-47.126-7.118-49.072-26.53-4.323-39.687 31.778-100.727 31.778-100.727l-3.459-.215c-5.836 9.921-9.944 18.117-9.944 18.117 1.081-4.529 4.54-11.647 7.999-18.117l-21.834-1.079s-39.56 70.962-22.915 113.021c9.512 23.942 23.131 31.059 47.343 32.785 52.963 3.667 126.031-124.668 126.031-124.668zm-108.305 120.786c-.864.215-1.729.215-2.81.431-1.081 0-2.378.216-3.675.216s-2.81 0-4.54 0c-1.513 0-3.242-.216-4.972-.432-.865 0-1.729-.215-2.594-.431s-1.729-.216-2.594-.431c-.865-.216-1.73-.432-2.594-.647l-2.594-.863c-.865-.216-1.73-.647-2.594-.863-.865-.431-1.73-.647-2.595-1.078-1.513-.863-3.242-1.51-4.755-2.589-.649-.431-1.514-.862-2.162-1.51-.649-.647-1.297-1.078-1.946-1.509-.216-.216-.648-.432-.865-.863-.216-.216-.432-.647-.864-.863-.433-.647-1.081-1.078-1.513-1.51-.865-1.078-1.514-2.157-2.162-3.019-.649-.863-1.081-1.726-1.513-2.589-.649-1.509-1.081-2.156-1.081-2.156s.432.862 1.297 2.156c.432.647.864 1.51 1.513 2.373.432.431.648.863 1.081 1.51.432.431.648 1.078 1.297 1.51.432.431.865 1.078 1.513 1.509.216.216.432.432.865.863.216.216.648.432.865.647.648.432 1.297 1.079 1.945 1.51.649.431 1.297.863 2.162 1.294 1.297 1.079 3.026 1.726 4.54 2.588.864.432 1.729.648 2.594 1.079.864.431 1.729.647 2.594.863l2.594.862c.865.216 1.729.432 2.594.648.865.215 1.729.431 2.594.431.865.216 1.73.216 2.594.431 1.73.216 3.459.432 4.972.432 1.514.215 3.027.215 4.54.215h3.675c.865-.215 1.73-.215 2.594-.215 1.513-.432 2.378-.432 2.378-.432s-.865 0-2.378.432z"/><path d="m680.512 365.336s-9.512 24.373-29.832 45.295c-21.618 22-46.046 27.177-46.046 27.177l-1.946 4.529s27.023 1.726 57.287-25.451c24.861-22.432 35.453-52.628 35.453-52.628zm2.594 17.471c-1.513 2.804-3.459 5.824-5.404 8.628-1.081 1.509-1.946 2.804-3.027 4.313-1.08 1.295-1.945 2.804-3.026 3.883-1.081 1.294-1.946 2.588-3.027 3.667-1.08 1.078-1.945 2.156-2.81 3.019s-1.729 1.726-2.378 2.588c-.648.647-1.513 1.295-1.945 1.942-1.081 1.078-1.73 1.509-1.73 1.509s.649-.647 1.73-1.725c.432-.647 1.08-1.078 1.945-1.941.649-.863 1.513-1.726 2.378-2.589.865-.862 1.73-2.156 2.594-3.235.865-1.078 1.946-2.372 2.811-3.667 1.08-1.294 1.945-2.588 3.026-3.882s1.946-2.804 2.81-4.314c1.946-2.804 3.675-5.823 5.405-8.412 1.729-2.804 3.242-5.392 4.323-7.549 1.297-2.157 2.162-4.098 3.027-5.392.648-1.294 1.081-2.157 1.081-2.157s-1.297 3.235-3.675 7.765c-1.081 2.157-2.594 4.745-4.108 7.549z"/><path d="m645.709 508.338 3.026 8.628h2.594l-30.265-78.511-17.078 1.941 25.725 77.432 18.375-.647zm-22.051-20.706c-.864-2.373-1.729-5.177-2.81-7.981-1.081-3.019-2.162-6.039-3.243-9.274-1.08-3.236-2.161-6.255-3.026-9.275-.865-3.019-1.946-5.823-2.594-8.196-1.513-4.745-2.594-7.98-2.594-7.98s1.081 3.235 2.81 7.764c.865 2.373 1.729 5.177 2.81 7.981 1.081 3.019 2.162 6.039 3.243 9.274 1.081 3.236 2.162 6.255 3.027 9.275.864 3.02 1.945 5.824 2.594 8.196 1.513 4.745 2.594 7.981 2.594 7.981s-1.081-3.02-2.811-7.765z"/><path d="m821.243 412.572s-38.912 90.374-69.176 86.491c-18.375-2.372-19.24-25.451-5.621-70.53l-3.459.216c-2.161 7.117-3.675 11.863-3.675 11.863l2.162-11.863-15.132 1.294c-4.756 17.039-11.241 36.883-8.864 56.295 2.378 18.333 15.998 24.804 29.833 25.02 47.775.647 79.121-95.551 79.121-95.551zm-82.795 93.825c-.649-.216-1.297-.647-2.162-.863-.865-.431-1.73-.863-2.594-1.51-1.946-1.294-3.891-2.804-5.621-5.176-.865-1.079-1.729-2.373-2.378-3.667-.648-1.294-1.297-2.588-1.945-4.098-.433-1.51-.865-2.804-1.298-4.314-.432-1.51-.648-2.804-.864-4.314-.433-2.804-.433-5.392-.433-7.549s.217-4.098.433-5.392.216-1.941.216-1.941-.432 3.019-.432 7.333.648 10.353 2.81 15.961c.432 1.294 1.081 2.804 1.729 3.883.649 1.294 1.514 2.372 2.378 3.451 1.73 2.156 3.675 3.882 5.405 5.176.432.431.864.647 1.297.863.432.216.864.431 1.297.647.865.863 1.729 1.294 2.162 1.51 1.297.431 1.945.647 1.945.647s-.648-.216-1.945-.647z"/><path d="m740.393 377.199 4.972-17.255-16.429 1.079-52.315 154.649 3.459-.216c.865-2.804 1.946-5.392 2.81-7.981.865-2.588 1.946-4.96 2.594-7.117 1.514-4.098 2.594-6.902 2.594-6.902s-.864 2.804-2.161 7.117c-.649 2.157-1.514 4.53-2.378 7.118-.865 2.373-1.73 4.961-2.594 7.549l16.645-.647 53.18-155.08-3.675.215z"/><path d="m953.759 337.944s-64.204 157.453-108.953 147.747c-12.538-2.804-13.619-28.04-10.592-41.628.432-1.941.864-4.314 1.513-6.687 8.431-2.372 33.075-11.215 55.773-40.333 18.375-23.511 20.321-37.53 15.565-45.726-8.215-14.452-35.669-17.903-60.529 14.451-13.403 17.47-36.534 58.883-34.589 97.707 1.297 25.667 14.268 33.863 26.59 36.02 59.881 11.431 121.059-160.688 121.059-160.688zm-56.422 21.137c4.756 4.53-.648 18.118-14.267 34.726-19.456 23.726-37.183 31.707-44.533 34.079 4.324-13.373 11.025-29.765 20.753-43.569 20.321-28.902 33.291-29.765 38.047-25.236zm-54.476 22.001c1.729-2.804 3.675-5.824 6.053-9.059 2.378-3.236 5.188-6.471 7.998-9.706 1.513-1.51 3.027-3.02 4.54-4.53s3.026-2.804 4.756-4.098c1.513-1.294 3.242-2.372 4.756-3.235 1.513-.863 3.026-1.726 4.539-2.373.649-.431 1.514-.647 2.162-.863.649-.215 1.297-.431 1.946-.647 1.297-.431 2.378-.647 3.242-.862.865-.216 1.73-.216 2.162-.216h.865s-.216 0-.865.216c-.432 0-1.297.215-2.162.431-.864.216-1.945.431-3.242.863-.649.215-1.297.431-1.946.647-.648.216-1.297.647-2.162.863-1.513.647-3.026 1.509-4.539 2.588-1.514 1.078-3.027 2.157-4.756 3.451-1.514 1.294-3.027 2.588-4.756 4.098-1.513 1.51-3.027 3.02-4.54 4.529-2.81 3.02-5.62 6.471-7.998 9.706-2.378 3.236-4.54 6.255-6.27 8.844-3.458 5.392-5.62 9.059-5.62 9.059s2.594-4.098 5.837-9.706zm7.782 109.354c-.432 0-.865.216-1.513.216-.649 0-1.297 0-1.946.215-.432 0-.648 0-1.081 0-.432 0-.864 0-1.081 0-.432 0-.864 0-1.297 0-.432 0-.864-.215-1.297-.215-.864-.216-1.729-.432-2.594-.648-.432-.215-.865-.431-1.297-.647-.432-.215-.865-.431-1.297-.647-.865-.431-1.513-1.294-2.162-1.941-.648-.647-1.081-1.51-1.513-2.157-.216-.431-.432-.862-.648-1.078-.217-.432-.433-.863-.433-1.079-.216-.647-.432-1.509-.648-2.157-.433-1.294-.433-2.588-.649-3.235 0-.863-.216-1.294-.216-1.294s0 .431.216 1.294.432 1.941.865 3.235c.216.648.432 1.295.865 2.157.216.432.432.647.432 1.079.216.431.432.647.648 1.078.433.647.865 1.51 1.514 2.157.648.647 1.297 1.294 1.945 1.726.433.215.649.431 1.081.647.432.215.865.431 1.297.647.865.215 1.73.647 2.594.863.433 0 .865.215 1.297.215.433 0 .865 0 1.297.216.433 0 .865 0 1.081.216h1.081 1.946c.648-.863 1.081-1.079 1.513-.863.865-.216 1.297-.216 1.297-.216s-.648 0-1.297.216z"/><path d="m1057.74 428.749s-20.97 61.687-41.29 45.079c-15.56-12.726 27.45-143.002 27.45-143.002l-24.64 2.157-77.607 141.061s1.513-18.334 14.052-61.688c16.645-57.804 26.373-75.491 26.373-75.491l-5.837.216-8.863 19.628 6.918-19.412-17.943.862s-4.972 12.295-23.563 71.609c-8.863 28.471-13.187 51.981-15.565 65.57-1.945 10.784-1.297 14.451 8.864 17.255 9.295 2.804 13.619 1.725 19.023-7.334 15.781-26.314 60.528-106.119 60.528-106.119s-13.834 42.06-16.212 79.805c-1.297 18.55 7.134 25.667 20.322 29.334 39.78 11.216 56.85-57.373 56.85-57.373zm-36.97-33.863c.22-1.726.65-4.099 1.3-6.902.22-1.51.65-3.02 1.08-4.53s.87-3.235 1.3-4.961c.86-3.451 1.94-7.118 3.03-10.784 1.08-3.667 2.16-7.334 3.24-10.785s2.16-6.686 3.24-9.274c1.95-5.393 3.24-9.059 3.24-9.059s-1.29 3.666-3.02 9.059c-.87 2.804-1.95 6.039-3.03 9.274-1.08 3.451-2.16 7.118-3.24 10.785-1.08 3.666-2.16 7.333-3.03 10.784-.43 1.726-.86 3.451-1.3 4.961-.43 1.51-.86 3.02-1.08 4.53-.65 3.019-1.29 5.392-1.73 6.902-.21 1.725-.43 2.588-.43 2.588s.22-.863.43-2.588zm29.84 66.863c-.65 1.294-1.52 3.02-2.81 4.961-.65 1.078-1.3 1.941-2.17 3.235-.86 1.079-1.73 2.157-2.59 3.451-1.95 2.157-4.11 4.53-6.7 6.471-1.3 1.079-2.6 1.941-3.89 2.804-1.3.863-2.6 1.51-4.11 2.157-1.3.647-2.81 1.078-4.11 1.294-.65.216-1.29.216-1.94.431-.65 0-1.3.216-1.95.216-1.08.216-2.38 0-3.24 0-.87 0-1.73-.216-2.38-.216-1.3-.215-2.16-.431-2.16-.431s.86.216 2.16.431c.65 0 1.51.216 2.38.216.86 0 1.94 0 3.24-.216.65 0 1.08-.215 1.73-.215s1.3-.216 1.95-.432c1.29-.431 2.59-.862 3.89-1.509 1.29-.648 2.59-1.295 3.89-2.157 1.3-.863 2.59-1.726 3.67-2.804 2.38-1.941 4.76-4.098 6.49-6.255 1.94-2.157 3.67-4.314 4.97-6.255 2.6-3.883 4.11-6.687 4.11-6.687s.21.216-.43 1.51z"/><path d="m1046.07 248.648c-1.73 6.04-4.33 10.785-5.84 11.863 1.95-4.745 3.24-8.843 3.89-12.294l-9.29-1.51s-11.89 51.334-45.185 65.785l.648 6.255c43.887-10.353 57.507-69.667 57.507-69.667z"/><path d="m615.227 361.669s-26.806 10.569-49.72 14.02c-2.162-4.529-4.972-7.765-8.431-10.353-9.944-7.333-20.753-3.882-22.483 3.02-1.729 6.902 1.514 13.372 21.618 12.294 1.081 0 2.378-.216 3.459-.216 2.594 13.373 0 36.452-12.322 67.295-14.7 36.236-48.424 79.158-56.855 77.864-9.944-1.725-9.944-21.353 3.891-51.55 28.32-62.765 45.398-81.53 45.398-81.53l-4.108-.216c-7.998 11.432-17.726 26.746-17.726 26.746 4.107-8.412 11.025-19.197 16.213-26.962l-15.781-1.078s-26.806 33.432-48.424 88.001c-16.429 41.197-2.161 49.393 4.756 52.844 4.972 2.373 15.565 3.882 18.808 3.451 14.051-1.941 45.613-40.549 62.042-81.53 14.268-35.805 16.43-59.531 11.458-74.197 21.834-3.236 46.478-11.432 46.478-11.432zm-94.901 146.238c-3.892 4.745-8.864 11.215-14.7 16.823-1.514 1.51-3.027 2.804-4.54 4.098-1.513 1.295-3.243 2.373-5.188 2.804-1.946.647-3.675.863-5.621.647-1.729 0-3.459-.215-4.972-.647-3.027-.862-5.188-1.941-6.918-3.019-1.513-.863-2.378-1.51-2.378-1.51s.865.647 2.378 1.51c1.514.862 3.891 1.941 6.918 2.588 3.026.647 6.485.863 10.16-.216 1.73-.431 3.459-1.509 4.972-2.804 1.514-1.294 3.027-2.588 4.54-4.098 3.027-2.804 5.621-5.823 8.215-8.627s4.756-5.608 6.701-7.981c3.891-4.745 6.486-7.98 6.486-7.98s-2.378 3.451-6.053 8.412zm25.941-129.414c-.216 0-.649 0-.865 0-.432 0-.648 0-1.081-.216-.432 0-.864-.215-1.297-.431-.432-.216-1.081-.216-1.513-.647-.432-.216-1.081-.431-1.513-.863-.433-.431-.865-.863-1.297-1.294-.433-.431-.649-.863-1.081-1.51-.216-.215-.216-.431-.433-.863 0-.215-.216-.431-.216-.862-.216-.647-.216-1.079-.216-1.51 0-.432 0-1.079 0-1.51s.216-.863.216-1.078c.216-.432.216-.647.433-.863.216-.432.432-.647.432-.647s-.216.215-.432.647c0 .216-.217.431-.217.863 0 .431-.216.647-.216 1.078v1.294c0 .432.216.863.216 1.51.217.431.433 1.078.649 1.51.216.431.648.863.865 1.294.432.431.864.863 1.297 1.078.432.432.864.647 1.297.863.432.216.864.432 1.297.647.432.216.865.432 1.297.432s.865.215 1.081.215c.865.647 1.081.863 1.297.863h.865s-.217.216-.865 0zm9.728-1.941c-11.458.431-15.565-2.373-14.916-6.687.648-4.529 8.214-5.392 13.403-.862 1.729 1.51 3.242 4.098 4.323 7.333-.865 0-1.945 0-2.81.216z"/><path d="m635.548 359.081-5.188 12.079 3.459-11.863-18.591 2.373-66.367 167.374 4.324-.215 4.107-10.138-2.378 9.922 17.943-1.51 65.934-168.237z"/><path d="m841.78 334.924s3.459-1.51 8.431-1.51l.432-1.51s-27.454-1.294-78.904 42.922c-45.181 38.824-67.664 77.433-67.664 77.433l5.405.431c22.266-25.235 39.56-47.236 63.556-67.942 45.829-39.902 74.364-40.981 74.364-40.981l2.595-9.059c-1.514-.215-4.324-.431-8.215.216z"/><path d="m773.035 234.629s-6.053.216-14.483 1.294c2.594-13.157 1.945-14.235 1.945-14.235l-21.401 7.117s-.433 4.53-1.514 11.001c-19.456 4.96-39.344 14.882-37.182 34.294 2.378 20.059 45.397 18.981 53.828-18.333 1.081-5.177 2.162-9.706 2.81-13.373 8.647-1.51 15.133-1.941 15.133-1.941zm-25.076 28.471c-1.297 2.804-3.027 5.608-4.972 8.196-1.946 2.589-4.324 4.745-6.918 6.471-2.594 1.941-5.62 3.02-8.647 3.667l2.162-.863c.432-.216.648-.216 1.081-.431l1.081-.432c.648-.431 1.513-.647 2.161-1.078l1.946-1.294c2.594-1.942 4.756-4.099 6.701-6.471 1.946-2.588 3.459-5.177 4.973-7.981.648-1.509 1.297-2.804 1.945-4.313.649-1.51 1.081-3.02 1.513-4.53-.648 3.235-1.729 6.255-3.026 9.059zm-31.346 14.236c-9.512 1.294-11.025-12.079-.432-20.922 4.756-3.883 12.322-6.902 20.321-9.275-3.027 13.157-8.864 28.687-19.889 30.197z"/><path d="m1166.26 22.6068c-.21 1.2941-.43 2.5883-.65 3.6667-.43 2.1569-.86 4.3138-1.29 6.255-.87 4.0981-1.95 7.7648-3.03 10.7844-1.08 3.0197-1.95 5.6079-2.81 7.5491-.65 1.7256-1.3 2.804-1.3 2.804s1.73-4.0981 3.46-10.3531c.43-1.5098.87-3.2353 1.51-5.1765.44-1.7255.87-3.6667 1.3-5.8236.22-1.0785.43-1.9412.65-3.0197.22-1.0784.43-2.1568.65-3.2353.21-1.2941.43-2.3726.43-3.6667l-8.86-.4314s-4.54 40.7652-29.4 72.2558c-23.13 29.3335-53.18 25.4515-71.12 22.6475 18.37-48.7458 21.83-77.0011 18.37-81.5306-3.67-4.9608-13.83-5.1765-18.59-.647-6.7 6.255-26.59 31.9219-60.53 86.2756-16.43 26.098-29.833 54.354-29.833 54.354s13.187-36.452 24.428-67.295c14.915-40.5499 24.215-71.1777 24.215-71.1777l-3.46.2156-8.22 20.7062 6.49-20.0591-15.35 2.3726s-12.754 32.569-36.101 94.2564c-21.834 56.942-43.236 129.413-43.236 129.413l5.405-.216c2.594-7.549 5.62-16.608 5.62-16.608l-4.323 16.608 10.593-.215c4.755-.216 7.998-2.804 10.808-10.138 17.943-48.098 31.13-81.746 53.612-117.766 37.832-61.0398 61.822-88.2167 61.822-88.2167s-3.24 21.1376-19.23 64.7067c-.44 1.078-.87 2.157-1.3 3.451-6.7.647-15.35 3.451-23.13 14.02-10.81 14.667-16.216 35.373-16.216 47.02 0 12.726 13.186 15.53 18.596 15.098 11.88-1.078 26.8-40.765 37.61-68.373 27.45 4.745 56.21 8.412 83.23-24.8044 27.88-34.5102 31.78-75.0597 31.78-75.0597zm-159.97 156.3742c-4.75-2.157-.43-22.431 6.49-36.235 7.35-14.452 14.7-19.628 21.61-21.354-8.86 23.942-23.56 59.531-28.1 57.589zm40.86-49.608c-.65 1.725-1.51 4.314-2.6 7.333-1.08 3.02-2.59 6.471-4.1 10.353-1.52 3.667-3.25 7.765-4.98 11.648-1.72 3.882-3.67 7.764-5.62 11.215-.86 1.726-1.94 3.451-3.02 4.961s-1.95 3.02-2.81 4.314c-.87 1.294-1.95 2.373-2.81 3.451-.44.431-.87.863-1.3 1.294-.43.432-.86.647-1.08 1.079-.87.647-1.3 1.078-1.73 1.294-.43.215-.65.431-.65.431s.22-.216.65-.431c.43-.216 1.08-.647 1.73-1.294.43-.432.65-.647 1.08-1.079.43-.431.86-.863 1.3-1.294.86-1.078 1.73-2.157 2.59-3.451.87-1.294 1.73-2.804 2.81-4.314.87-1.51 1.95-3.235 2.81-5.176 1.95-3.451 3.89-7.334 5.62-11.216 1.73-3.883 3.68-7.765 5.19-11.432 1.51-3.666 3.03-7.117 4.32-10.137 2.38-6.039 4.11-9.922 4.11-9.922s-.86.647-1.51 2.373z"/><path d="m612.633 209.178c-5.405 3.019-18.159 9.274-43.02 26.314-2.81-25.883 17.294-68.589 17.294-68.589s-8.863 0-22.05 2.588c-36.75 6.902-49.504 26.314-49.504 26.314l-3.459 12.726c10.809-17.687 32.427-26.53 48.64-30.844 0 0-19.456 45.51-7.782 69.668-9.08 6.47-19.456 14.235-30.914 23.078-121.059 92.747-244.928 44.001-244.928 44.001l-2.162 4.961s43.884 35.804 117.6 27.177c50.586-6.04 84.309-28.903 113.277-50.687 18.375-13.804 36.75-27.609 53.396-40.119 2.81 2.373 6.269 4.314 10.592 5.393 24.428 6.255 44.965-1.941 57.936-32.138 8.214-20.275-2.594-26.53-14.916-19.843zm-144.407 106.119-3.026 1.941c-1.081.647-2.162 1.078-3.027 1.725l-6.269 3.236c-2.161 1.078-4.323 1.941-6.485 3.019-4.324 2.157-8.647 3.667-13.187 5.393-2.162.862-4.54 1.509-6.701 2.156-1.081.432-2.162.648-3.459 1.079l-3.459.863c-4.54 1.294-9.296 2.157-13.835 3.019l-6.918 1.079c-2.378.431-4.756.647-7.134.863-9.295 1.078-18.807 1.509-28.319.862 4.756.216 9.512.216 14.052 0 2.377-.215 4.755-.215 7.133-.431s4.756-.431 7.134-.647 4.756-.647 6.918-.863l6.918-1.294c4.539-1.079 9.295-1.941 13.835-3.235l3.459-.863c1.081-.216 2.161-.647 3.459-1.079 2.161-.647 4.539-1.294 6.701-2.156 4.324-1.726 8.863-3.236 13.187-5.177 2.162-1.078 4.323-1.941 6.485-3.02l6.269-3.235c1.081-.647 2.162-1.078 3.027-1.726l3.242-1.509 6.053-3.667zm94.686-63.413c-1.73-1.725-3.243-3.882-4.54-6.255-1.297-2.157-2.162-4.745-2.594-7.118-.649-2.588-1.081-4.96-1.081-7.549-.216-5.176 0-10.137.865-15.314.865-4.961 2.162-9.921 3.675-14.882-.865 2.372-1.513 4.961-1.946 7.333-.648 2.373-1.081 4.961-1.297 7.549-.648 4.961-1.081 10.138-.648 15.099.216 2.588.432 4.96 1.081 7.549.648 2.372 1.513 4.961 2.594 7.117 1.081 2.157 2.378 4.314 3.891 6.471 1.945 1.726 3.891 3.235 6.269 4.53-2.378-1.295-4.324-2.804-6.269-4.53zm60.529-29.765c-8.647 22-27.022 37.746-43.019 31.059-3.675-1.51-6.269-4.314-7.998-7.549 24.428-18.118 42.803-31.059 47.342-31.922 4.324-1.078 5.837 2.804 3.675 8.412z"/><path d="m440.772 257.492s5.188-33.648 20.753-72.688c13.835-34.51 27.022-69.236 27.022-69.236l-27.238 3.667-95.983 142.139s2.81-20.275 18.159-59.961c17.943-47.021 29.832-75.923 29.832-75.923l-4.972.431c-3.891 8.197-6.917 15.099-6.917 15.099.648-3.667 3.026-9.706 5.188-14.883l-19.889 1.941s-33.291 80.021-46.478 136.316c-1.513 6.902 1.514 17.039 14.917 17.686 9.295.432 9.511-4.098 24.428-24.588l67.231-100.727s-46.046 97.06-26.158 113.021c7.566 6.039 18.375 4.314 24.644-5.608 29.184-45.942 75.014-128.551 75.014-128.551l8.863-27.392zm-10.161-36.667c-.864 3.451-1.729 6.686-2.378 10.137-.864 3.451-1.729 6.902-2.377 10.137.648-3.451 1.297-6.902 2.161-10.353.865-3.451 1.514-6.902 2.378-10.137 1.73-6.902 3.459-13.589 5.188-20.275 1.946-6.686 4.108-13.373 6.27-20.059 2.378-6.686 4.972-13.157 7.998-19.412l-2.162 4.745c-.648 1.51-1.297 3.235-1.945 4.961-.649 1.51-1.297 3.235-1.946 4.961-.648 1.725-1.297 3.235-1.729 4.961-2.378 6.686-4.324 13.372-6.269 20.059-1.514 6.902-3.459 13.588-5.189 20.275z"/><path d="m662.785 84.725s-46.694-1.0784-94.253 45.295c-29.832 29.118-39.344 44.432-39.344 44.432l21.618-67.727-21.618 1.51-54.26 161.12 6.053-.647 5.836-14.02-4.539 13.804 15.348-1.725 22.267-63.197s.432-8.844 37.83-49.177c47.559-51.119 98.145-50.687 98.145-50.687l5.837-15.3143c-4.324 0-10.809.6471-19.456 2.1569 0 0 4.539-2.3725 19.888-3.451zm-133.165 73.334 4.54-14.882 4.54-14.883c1.513-4.961 3.243-9.921 4.756-14.882-1.513 4.961-2.811 9.921-4.324 14.882l-4.539 14.883-4.54 14.882c-1.513 4.961-3.243 9.922-4.756 14.883 1.513-4.961 3.026-9.922 4.323-14.883z"/><path d="m742.121 76.3133-15.781 33.4317 1.946-.216 5.62-10.3527-3.891 10.1377 4.54-.432s6.485-12.0783 14.484-14.6665c12.322-4.0981 82.579-12.51 82.579-12.51s-8.863 22.0005-35.02 30.8435c-24.428 8.412-44.749 9.49-44.749 9.49l-3.459 13.157s48.207-6.902 41.29 40.55c-7.783 53.922-85.39 54.354-83.877 26.745 1.73-29.765 42.587-28.471 42.587-28.471l.216-1.509h-6.269s2.594-.647 6.485-.863l.433-3.883s-51.45-4.529-55.99 33.217c-6.053 49.608 111.98 49.608 121.491-25.452 5.405-43.569-37.182-47.236-37.182-47.236s19.24-2.804 39.993-15.098c28.967-17.255 33.723-50.4711 33.723-50.4711zm74.149-5.1766-14.917 1.9412-14.916 1.7255c-4.972.6471-9.944 1.0785-14.916 1.7256 4.972-.6471 9.944-1.5099 14.916-2.1569l14.916-1.9412 14.917-1.7256c4.972-.647 9.944-1.0784 14.916-1.7255-4.972.8628-9.944 1.5099-14.916 2.1569z"/><path d="m942.519 103.059c11.89-32.7851 19.888-57.158 19.888-57.158l-22.482 2.3726s-25.293 50.2555-52.747 87.5694c-18.591 25.236-25.725 30.628-25.725 30.628s-12.538-5.176.432-36.667c17.511-42.9221 30.481-73.5499 30.481-73.5499l-14.7 1.7255-6.485 14.0198 5.188-14.0198-5.404.6471s-8.431 19.1963-29.617 72.0403c-9.511 23.726-4.755 29.549.217 38.177 2.161 3.882 17.294 9.706 23.995 4.961 16.43-11.863 48.208-61.256 48.208-61.256s-6.269 19.412-15.565 44.648c-29.184 34.725-55.558 66.216-64.205 76.138-15.348 17.255-15.997 36.883 3.243 40.334 24.86 4.529 36.966-11 58.8-56.511 13.619-28.471 27.455-63.412 39.128-94.256 27.671-33.4318 49.937-60.6086 49.937-60.6086l8.863-21.7846c0 .2157-22.914 28.0396-51.45 62.5502zm-116.303 156.59c.216 1.941.865 3.882 1.729 5.608-1.08-1.726-1.729-3.667-2.161-5.608-.216-1.941-.217-4.098.216-6.039.432-1.942 1.081-3.883 1.729-5.608.865-1.726 1.73-3.667 3.027-5.177-1.081 1.726-1.73 3.451-2.594 5.392-.649 1.942-1.297 3.667-1.73 5.608-.216 1.941-.432 3.883-.216 5.824zm41.074-28.255c-12.106 25.235-22.699 38.824-33.508 33.216-9.512-4.745-.432-19.412 4.972-25.883 9.08-10.569 28.968-34.51 51.234-61.471-6.917 18.549-14.916 37.961-22.698 54.138zm60.313-103.315-6.918 18.549c-2.378 6.255-4.756 12.294-7.134 18.549-2.378 6.039-4.755 12.294-7.566 18.118 1.513-3.02 2.594-6.039 3.675-9.059l3.459-9.275 6.918-18.549 6.917-18.549 7.134-18.549c-2.162 6.255-4.323 12.51-6.485 18.765z"/><path d="m254.211 270.649c-1.513-4.098-2.378-8.628-2.594-13.157-.432-4.529-.216-9.059.216-13.373.216-2.157.433-4.529.865-6.686s.865-4.53 1.297-6.686c-1.297 4.313-2.162 8.843-2.594 13.372-.432 4.53-.649 9.059-.432 13.589.216 2.157.432 4.529.864 6.686.433 2.157 1.081 4.53 1.946 6.471.865 2.157 1.945 4.098 3.243 6.039 1.297 1.726 3.026 3.451 4.755 4.961-3.458-3.235-6.053-7.118-7.566-11.216z"/><path d="m588.42 58.4111c-4.108 3.2354-8.647 5.8236-13.619 7.7648s-9.945 3.0197-15.133 4.0981c-10.376 1.9412-20.969 2.5883-31.345 2.804-5.189 0-10.593 0-15.781-.2157-5.189-.2157-10.593-.6471-15.781-1.0784 10.376 1.2941 20.969 1.9412 31.562 1.7255 10.592 0 21.185-.6471 31.561-2.5883 5.189-1.0784 10.377-2.1569 15.349-4.0981s9.512-4.7451 13.619-7.9805c7.566-6.0393 13.835-14.0198 17.727-22.863-1.946 4.0981-4.324 7.7648-6.918 11.4315-3.459 3.8824-7.134 7.7648-11.241 11.0001z"/><path d="m621.063.606314-2.811-.215689s-12.322 36.235775-73.068 45.294675c-75.013 11.2158-108.088-1.0784-158.241 3.6667-71.122 6.9021-100.522 37.7456-125.166 111.08-15.133 44.647-25.293 108.491-13.187 120.354 2.594 2.589 11.025 9.275 16.429 11 7.566 2.589 34.589 7.765 58.152-39.471 25.509-50.902 35.237-114.53 23.131-117.334-.433 0-1.73-.432-2.162-.432 1.513 4.098 2.81 8.628 1.513 15.314 0 0 .433-9.275-3.459-15.529-11.241-1.295-26.157.862-39.128 7.98-25.509 13.804-40.209 52.197-42.154 56.942 2.162-8.412 29.832-123.3742 99.657-126.3939 72.42-3.2353 89.281 8.4119 176.833 7.9805 87.119-.4314 83.661-80.236286 83.661-80.236286zm-364.042 275.866686c-1.297-1.726-2.378-3.883-3.243-6.04s-1.513-4.314-1.946-6.47c-.432-2.157-.864-4.53-.864-6.687-.216-4.529-.216-9.059.432-13.588.432-4.53 1.297-8.843 2.594-13.373-.648 2.157-.865 4.314-1.297 6.686-.432 2.157-.648 4.53-.865 6.687-.432 4.529-.648 9.059-.216 13.373.216 4.529 1.081 9.058 2.594 13.157 1.514 4.098 4.108 7.98 7.567 11-1.946-1.079-3.459-2.804-4.756-4.745zm18.807-83.472c18.591-37.099 34.805-47.883 44.1-44.001 9.944 4.098 6.269 37.315-13.835 84.982-11.674 27.608-22.699 50.902-37.183 42.706-18.158-9.921-7.133-55.432 6.918-83.687zm312.808-134.3743c-4.107 3.2353-8.647 6.0393-13.619 7.9805s-10.16 3.2353-15.349 4.098c-10.376 1.9412-20.969 2.5883-31.562 2.5883-10.592 0-21.185-.4314-31.561-1.7255 5.188.6471 10.592.8628 15.781 1.0784 5.188.2157 10.592.4314 15.78.2157 10.593-.2157 20.97-.8627 31.346-2.8039 5.188-.8628 10.377-2.1569 15.132-4.0981 4.756-1.9412 9.512-4.5295 13.62-7.7648 4.107-3.2354 7.782-7.1178 11.025-11.2158 2.594-3.4511 5.188-7.3335 6.917-11.4316-3.891 8.8433-9.944 16.8238-17.51 23.0788z"/><path d="m731.814 653.599v-25.569h-7.504v-2.739c4.576-.183 7.138-.731 8.969-4.384h2.746v32.692z"/><path d="m761.285 638.075c-1.465 2.557-4.393 4.566-8.603 4.566-6.041 0-10.434-4.566-10.434-11.141 0-6.027 4.576-11.141 11.532-11.141 8.237 0 11.898 5.662 11.898 15.707 0 9.131-3.295 18.081-12.813 18.081-6.407 0-9.336-4.018-10.068-8.219h4.393c.549 2.922 2.746 4.748 6.041 4.748 4.942 0 7.871-4.931 8.054-12.601zm-7.688-14.246c-4.21 0-7.139 3.105-7.139 7.671 0 4.383 2.929 7.671 7.139 7.671s7.139-3.288 7.139-7.671c0-4.566-2.746-7.671-7.139-7.671z"/><path d="m772.085 638.805v-3.835h29.653v3.835z"/><path d="m829.378 628.943c0 7.488-7.871 14.246-17.023 20.82h17.939v3.836h-23.613v-3.653c11.532-8.584 18.304-14.611 18.304-20.455 0-3.47-2.196-5.662-6.223-5.662-3.478 0-6.956 2.009-6.956 7.306h-4.21c-.183-6.392 4.393-10.776 11.349-10.776 6.04 0 10.433 2.923 10.433 8.584z"/><path d="m846.034 654.147c-8.786 0-12.63-6.575-12.63-16.985s4.027-16.803 12.63-16.803c8.787 0 12.631 6.575 12.631 16.803 0 10.227-3.844 16.985-12.631 16.985zm0-30.318c-5.125 0-8.42 4.384-8.42 13.515 0 9.132 3.112 13.515 8.42 13.515 5.309 0 8.421-4.383 8.421-13.515 0-9.131-3.295-13.515-8.421-13.515z"/><path d="m514.539 653.233h-4.576v-20.272h-11.349v20.272h-4.576v-23.925h20.684v23.925z"/><path d="m540.898 653.233h-4.576v-20.272h-7.505l-.183 4.566c-.549 10.045-2.563 15.706-8.786 15.706h-.915v-3.652h.549c2.928 0 4.21-3.653 4.759-12.785l.366-7.488h16.474v23.925z"/><path d="m563.778 646.293h4.76c-1.099 4.018-4.76 7.671-10.8 7.671-7.688 0-11.898-5.662-11.898-12.602 0-7.488 4.942-12.419 11.898-12.419 7.322 0 11.715 6.027 11.166 13.88h-18.305c.549 4.383 3.295 7.123 6.956 7.123 3.295 0 5.125-1.461 6.223-3.653zm-13.179-7.122h13.362c-.183-3.47-2.745-6.393-6.406-6.393-3.661-.182-6.407 1.644-6.956 6.393z"/><path d="m573.48 653.233v-23.925h4.577v17.35l11.715-17.35h4.576v23.925h-4.576v-17.168l-11.715 17.351h-4.577zm3.661-32.143h3.478c.183 1.643 1.099 2.556 3.661 2.556 2.563 0 3.478-1.095 3.661-2.556h3.478c-.366 2.922-2.197 5.296-7.322 5.296-4.759 0-6.773-2.557-6.956-5.296z"/><path d="m599.656 643.371v-4.2h14.278v4.2z"/><path d="m641.024 641.362c0 8.584-6.041 12.419-11.715 12.419-5.675 0-11.715-3.835-11.715-12.419 0-8.766 6.04-12.419 11.715-12.419 5.674 0 11.715 3.835 11.715 12.419zm-11.715 8.584c3.477 0 6.772-2.74 6.772-8.584s-3.295-8.584-6.772-8.584c-3.478 0-6.773 2.557-6.773 8.584 0 5.844 3.295 8.584 6.773 8.584z"/><path d="m660.793 629.308c5.857 0 12.081 3.836 12.081 12.054 0 8.584-6.224 12.054-12.081 12.054v7.488h-4.393v-7.488c-5.858 0-11.898-3.47-11.898-12.054 0-8.218 5.857-12.054 11.898-12.054v-8.401h4.393zm-4.393 3.836c-3.478 0-7.139 2.556-7.139 8.401 0 5.661 3.844 8.035 7.139 8.035zm4.393 16.619c3.478 0 7.139-2.374 7.139-8.036 0-5.844-3.844-8.401-7.139-8.401z"/><path d="m692.643 629.308c5.857 0 12.081 3.836 12.081 12.054 0 8.584-6.224 12.054-12.081 12.054v7.488h-4.393v-7.488c-5.858 0-11.898-3.47-11.898-12.054 0-8.218 5.857-12.054 11.898-12.054v-8.401h4.393zm-4.393 3.836c-3.478 0-7.139 2.556-7.139 8.401 0 5.661 3.844 8.035 7.139 8.035zm4.393 16.619c3.477 0 7.138-2.374 7.138-8.036 0-5.844-3.844-8.401-7.138-8.401z"/></g></svg>