<svg width="80" height="73" viewBox="0 0 80 73" fill="none" xmlns="http://www.w3.org/2000/svg">
<g opacity="0.5">
<path d="M7.99753 68.0046H3.99902V72.0031H7.99753V68.0046Z" fill="black"/>
<path d="M12.0014 68.0046H8.00293V72.0031H12.0014V68.0046Z" fill="black"/>
<path d="M15.9995 68.0046H12.001V72.0031H15.9995V68.0046Z" fill="black"/>
<path d="M19.9985 68.0046H16V72.0031H19.9985V68.0046Z" fill="black"/>
<path d="M23.9975 68.0046H19.999V72.0031H23.9975V68.0046Z" fill="black"/>
<path d="M28.0024 68.0046H24.0039V72.0031H28.0024V68.0046Z" fill="black"/>
<path d="M32.0005 68.0046H28.002V72.0031H32.0005V68.0046Z" fill="black"/>
<path d="M35.9985 68.0046H32V72.0031H35.9985V68.0046Z" fill="black"/>
<path d="M39.9975 68.0046H35.999V72.0031H39.9975V68.0046Z" fill="black"/>
<path d="M44.0024 68.0046H40.0039V72.0031H44.0024V68.0046Z" fill="black"/>
<path d="M3.99851 64H0V67.9985H3.99851V64Z" fill="black"/>
<path d="M47.9995 64H44.001V67.9985H47.9995V64Z" fill="black"/>
<path d="M3.99851 60.0017H0V64.0002H3.99851V60.0017Z" fill="black"/>
<path d="M47.9995 60.0017H44.001V64.0002H47.9995V60.0017Z" fill="black"/>
<path d="M3.99851 56.0032H0V60.0017H3.99851V56.0032Z" fill="black"/>
<path d="M47.9995 56.0032H44.001V60.0017H47.9995V56.0032Z" fill="black"/>
<path d="M3.99851 52.0046H0V56.0031H3.99851V52.0046Z" fill="black"/>
<path d="M47.9995 52.0046H44.001V56.0031H47.9995V52.0046Z" fill="black"/>
<path d="M63.9995 52.0046H60.001V56.0031H63.9995V52.0046Z" fill="black"/>
<path d="M67.9985 52.0046H64V56.0031H67.9985V52.0046Z" fill="black"/>
<path d="M3.99851 48H0V51.9985H3.99851V48Z" fill="black"/>
<path d="M47.9995 48H44.001V51.9985H47.9995V48Z" fill="black"/>
<path d="M60.0005 48H56.002V51.9985H60.0005V48Z" fill="black"/>
<path d="M72.0034 48H68.0049V51.9985H72.0034V48Z" fill="black"/>
<path d="M3.99851 44.0015H0V48H3.99851V44.0015Z" fill="black"/>
<path d="M47.9995 44.0015H44.001V48H47.9995V44.0015Z" fill="black"/>
<path d="M60.0005 44.0015H56.002V48H60.0005V44.0015Z" fill="black"/>
<path d="M72.0034 44.0015H68.0049V48H72.0034V44.0015Z" fill="black"/>
<path d="M3.99851 40.0032H0V44.0017H3.99851V40.0032Z" fill="black"/>
<path d="M47.9995 40.0032H44.001V44.0017H47.9995V40.0032Z" fill="black"/>
<path d="M60.0005 40.0032H56.002V44.0017H60.0005V40.0032Z" fill="black"/>
<path d="M72.0034 40.0032H68.0049V44.0017H72.0034V40.0032Z" fill="black"/>
<path d="M3.99851 35.9985H0V39.997H3.99851V35.9985Z" fill="black"/>
<path d="M15.9995 35.9985H12.001V39.997H15.9995V35.9985Z" fill="black"/>
<path d="M19.9985 35.9985H16V39.997H19.9985V35.9985Z" fill="black"/>
<path d="M23.9975 35.9985H19.999V39.997H23.9975V35.9985Z" fill="black"/>
<path d="M28.0024 35.9985H24.0039V39.997H28.0024V35.9985Z" fill="black"/>
<path d="M32.0005 35.9985H28.002V39.997H32.0005V35.9985Z" fill="black"/>
<path d="M35.9985 35.9985H32V39.997H35.9985V35.9985Z" fill="black"/>
<path d="M47.9995 35.9985H44.001V39.997H47.9995V35.9985Z" fill="black"/>
<path d="M60.0005 35.9985H56.002V39.997H60.0005V35.9985Z" fill="black"/>
<path d="M72.0034 35.9985H68.0049V39.997H72.0034V35.9985Z" fill="black"/>
<path d="M3.99851 32H0V35.9985H3.99851V32Z" fill="black"/>
<path d="M47.9995 32H44.001V35.9985H47.9995V32Z" fill="black"/>
<path d="M60.0005 32H56.002V35.9985H60.0005V32Z" fill="black"/>
<path d="M72.0034 32H68.0049V35.9985H72.0034V32Z" fill="black"/>
<path d="M3.99851 28.0015H0V32H3.99851V28.0015Z" fill="black"/>
<path d="M12.0014 28.0015H8.00293V32H12.0014V28.0015Z" fill="black"/>
<path d="M15.9995 28.0015H12.001V32H15.9995V28.0015Z" fill="black"/>
<path d="M19.9985 28.0015H16V32H19.9985V28.0015Z" fill="black"/>
<path d="M23.9975 28.0015H19.999V32H23.9975V28.0015Z" fill="black"/>
<path d="M28.0024 28.0015H24.0039V32H28.0024V28.0015Z" fill="black"/>
<path d="M32.0005 28.0015H28.002V32H32.0005V28.0015Z" fill="black"/>
<path d="M35.9985 28.0015H32V32H35.9985V28.0015Z" fill="black"/>
<path d="M39.9975 28.0015H35.999V32H39.9975V28.0015Z" fill="black"/>
<path d="M47.9995 28.0015H44.001V32H47.9995V28.0015Z" fill="black"/>
<path d="M60.0005 28.0015H56.002V32H60.0005V28.0015Z" fill="black"/>
<path d="M72.0034 28.0015H68.0049V32H72.0034V28.0015Z" fill="black"/>
<path d="M3.99851 24.0032H0V28.0017H3.99851V24.0032Z" fill="black"/>
<path d="M12.0014 24.0032H8.00293V28.0017H12.0014V24.0032Z" fill="black"/>
<path d="M39.9975 24.0032H35.999V28.0017H39.9975V24.0032Z" fill="black"/>
<path d="M47.9995 24.0032H44.001V28.0017H47.9995V24.0032Z" fill="black"/>
<path d="M60.0005 24.0032H56.002V28.0017H60.0005V24.0032Z" fill="black"/>
<path d="M72.0034 24.0032H68.0049V28.0017H72.0034V24.0032Z" fill="black"/>
<path d="M3.99851 19.9985H0V23.997H3.99851V19.9985Z" fill="black"/>
<path d="M12.0014 19.9985H8.00293V23.997H12.0014V19.9985Z" fill="black"/>
<path d="M39.9975 19.9985H35.999V23.997H39.9975V19.9985Z" fill="black"/>
<path d="M47.9995 19.9985H44.001V23.997H47.9995V19.9985Z" fill="black"/>
<path d="M60.0005 19.9985H56.002V23.997H60.0005V19.9985Z" fill="black"/>
<path d="M72.0034 19.9985H68.0049V23.997H72.0034V19.9985Z" fill="black"/>
<path d="M3.99851 16H0V19.9985H3.99851V16Z" fill="black"/>
<path d="M12.0014 16H8.00293V19.9985H12.0014V16Z" fill="black"/>
<path d="M39.9975 16H35.999V19.9985H39.9975V16Z" fill="black"/>
<path d="M47.9995 16H44.001V19.9985H47.9995V16Z" fill="black"/>
<path d="M51.9985 16H48V19.9985H51.9985V16Z" fill="black"/>
<path d="M56.0034 16H52.0049V19.9985H56.0034V16Z" fill="black"/>
<path d="M72.0034 16H68.0049V19.9985H72.0034V16Z" fill="black"/>
<path d="M3.99851 12.0015H0V16H3.99851V12.0015Z" fill="black"/>
<path d="M12.0014 12.0015H8.00293V16H12.0014V12.0015Z" fill="black"/>
<path d="M39.9975 12.0015H35.999V16H39.9975V12.0015Z" fill="black"/>
<path d="M47.9995 12.0015H44.001V16H47.9995V12.0015Z" fill="black"/>
<path d="M72.0034 12.0015H68.0049V16H72.0034V12.0015Z" fill="black"/>
<path d="M3.99851 7.99707H0V11.9956H3.99851V7.99707Z" fill="black"/>
<path d="M12.0014 7.99707H8.00293V11.9956H12.0014V7.99707Z" fill="black"/>
<path d="M15.9995 7.99707H12.001V11.9956H15.9995V7.99707Z" fill="black"/>
<path d="M19.9985 7.99707H16V11.9956H19.9985V7.99707Z" fill="black"/>
<path d="M23.9975 7.99707H19.999V11.9956H23.9975V7.99707Z" fill="black"/>
<path d="M28.0024 7.99707H24.0039V11.9956H28.0024V7.99707Z" fill="black"/>
<path d="M32.0005 7.99707H28.002V11.9956H32.0005V7.99707Z" fill="black"/>
<path d="M35.9985 7.99707H32V11.9956H35.9985V7.99707Z" fill="black"/>
<path d="M39.9975 7.99707H35.999V11.9956H39.9975V7.99707Z" fill="black"/>
<path d="M47.9995 7.99707H44.001V11.9956H47.9995V7.99707Z" fill="black"/>
<path d="M76.0024 7.99707H72.0039V11.9956H76.0024V7.99707Z" fill="black"/>
<path d="M3.99851 3.99854H0V7.99704H3.99851V3.99854Z" fill="black"/>
<path d="M47.9995 3.99854H44.001V7.99704H47.9995V3.99854Z" fill="black"/>
<path d="M79.9995 3.99854H76.001V7.99704H79.9995V3.99854Z" fill="black"/>
<path d="M7.99753 0H3.99902V3.99851H7.99753V0Z" fill="black"/>
<path d="M12.0014 0H8.00293V3.99851H12.0014V0Z" fill="black"/>
<path d="M15.9995 0H12.001V3.99851H15.9995V0Z" fill="black"/>
<path d="M19.9985 0H16V3.99851H19.9985V0Z" fill="black"/>
<path d="M23.9975 0H19.999V3.99851H23.9975V0Z" fill="black"/>
<path d="M28.0024 0H24.0039V3.99851H28.0024V0Z" fill="black"/>
<path d="M32.0005 0H28.002V3.99851H32.0005V0Z" fill="black"/>
<path d="M35.9985 0H32V3.99851H35.9985V0Z" fill="black"/>
<path d="M39.9975 0H35.999V3.99851H39.9975V0Z" fill="black"/>
<path d="M44.0024 0H40.0039V3.99851H44.0024V0Z" fill="black"/>
</g>
<path d="M4 2L44 2" stroke="black" stroke-width="4"/>
<path d="M12 38L36 38" stroke="black" stroke-width="4"/>
<path d="M8 30L40 30" stroke="black" stroke-width="4"/>
<path d="M8 10L40 10" stroke="black" stroke-width="4"/>
<path d="M10 8L10 32" stroke="black" stroke-width="4"/>
<path d="M38 8L38 32" stroke="black" stroke-width="4"/>
<path d="M46 18H56" stroke="black" stroke-width="4"/>
<path d="M72 10H76" stroke="black" stroke-width="4"/>
<path d="M76 6H80" stroke="black" stroke-width="4"/>
<path d="M60 54H68" stroke="black" stroke-width="4"/>
<path d="M4 70L44 70" stroke="black" stroke-width="4"/>
<path d="M45.9999 4L46 68" stroke="black" stroke-width="4"/>
<path d="M58 20L58 52" stroke="black" stroke-width="4"/>
<path d="M70 12L70 51.9999" stroke="black" stroke-width="4"/>
<path d="M1.99995 4L2 68" stroke="black" stroke-width="4"/>
</svg>
